<svg xmlns="http://www.w3.org/2000/svg" xmlns:xlink="http://www.w3.org/1999/xlink" width="1080" zoomAndPan="magnify" viewBox="0 0 810 809.999993" height="1080" preserveAspectRatio="xMidYMid meet" version="1.0"><defs><clipPath id="5c028080de"><path d="M 405 0 C 181.324219 0 0 181.324219 0 405 C 0 628.675781 181.324219 810 405 810 C 628.675781 810 810 628.675781 810 405 C 810 181.324219 628.675781 0 405 0 Z M 405 0 " clip-rule="nonzero"/></clipPath><clipPath id="ec43091a60"><path d="M 0 0 L 810 0 L 810 810 L 0 810 Z M 0 0 " clip-rule="nonzero"/></clipPath><clipPath id="52ee4eea4f"><path d="M 405 0 C 181.324219 0 0 181.324219 0 405 C 0 628.675781 181.324219 810 405 810 C 628.675781 810 810 628.675781 810 405 C 810 181.324219 628.675781 0 405 0 Z M 405 0 " clip-rule="nonzero"/></clipPath><clipPath id="ad7bb84ef6"><rect x="0" width="810" y="0" height="810"/></clipPath><clipPath id="9d74bd9316"><path d="M 187 202 L 631 202 L 631 674 L 187 674 Z M 187 202 " clip-rule="nonzero"/></clipPath><clipPath id="8b0c1b0caf"><path d="M 4.605469 273.210938 L 521.886719 -0.00390625 L 805.261719 536.507812 L 287.980469 809.722656 Z M 4.605469 273.210938 " clip-rule="nonzero"/></clipPath><clipPath id="877ac8cb48"><path d="M 4.605469 273.210938 L 521.886719 -0.00390625 L 805.261719 536.507812 L 287.980469 809.722656 Z M 4.605469 273.210938 " clip-rule="nonzero"/></clipPath><clipPath id="a59965e954"><path d="M 215 146 L 450 146 L 450 362 L 215 362 Z M 215 146 " clip-rule="nonzero"/></clipPath><clipPath id="6bd1527cb6"><path d="M 4.605469 273.210938 L 521.886719 -0.00390625 L 805.261719 536.507812 L 287.980469 809.722656 Z M 4.605469 273.210938 " clip-rule="nonzero"/></clipPath><clipPath id="930b9b40e4"><path d="M 4.605469 273.210938 L 521.886719 -0.00390625 L 805.261719 536.507812 L 287.980469 809.722656 Z M 4.605469 273.210938 " clip-rule="nonzero"/></clipPath><clipPath id="f30aae2e51"><path d="M 315 94 L 377 94 L 377 192 L 315 192 Z M 315 94 " clip-rule="nonzero"/></clipPath><clipPath id="4ffca97105"><path d="M 4.605469 273.210938 L 521.886719 -0.00390625 L 805.261719 536.507812 L 287.980469 809.722656 Z M 4.605469 273.210938 " clip-rule="nonzero"/></clipPath><clipPath id="9e1a4070f3"><path d="M 4.605469 273.210938 L 521.886719 -0.00390625 L 805.261719 536.507812 L 287.980469 809.722656 Z M 4.605469 273.210938 " clip-rule="nonzero"/></clipPath><clipPath id="ddca93159b"><path d="M 173 178 L 271 178 L 271 239 L 173 239 Z M 173 178 " clip-rule="nonzero"/></clipPath><clipPath id="7843be7d60"><path d="M 4.605469 273.210938 L 521.886719 -0.00390625 L 805.261719 536.507812 L 287.980469 809.722656 Z M 4.605469 273.210938 " clip-rule="nonzero"/></clipPath><clipPath id="e3fb76a283"><path d="M 4.605469 273.210938 L 521.886719 -0.00390625 L 805.261719 536.507812 L 287.980469 809.722656 Z M 4.605469 273.210938 " clip-rule="nonzero"/></clipPath><clipPath id="fa23dfe6c8"><path d="M 325 275 L 548 275 L 548 656 L 325 656 Z M 325 275 " clip-rule="nonzero"/></clipPath><clipPath id="073a31b7df"><path d="M 4.605469 273.210938 L 521.886719 -0.00390625 L 805.261719 536.507812 L 287.980469 809.722656 Z M 4.605469 273.210938 " clip-rule="nonzero"/></clipPath><clipPath id="48cfe90143"><path d="M 4.605469 273.210938 L 521.886719 -0.00390625 L 805.261719 536.507812 L 287.980469 809.722656 Z M 4.605469 273.210938 " clip-rule="nonzero"/></clipPath><clipPath id="1bc3ba0b9c"><path d="M 474 150 L 608 150 L 608 267 L 474 267 Z M 474 150 " clip-rule="nonzero"/></clipPath><clipPath id="98b0667920"><path d="M 4.605469 273.210938 L 521.886719 -0.00390625 L 805.261719 536.507812 L 287.980469 809.722656 Z M 4.605469 273.210938 " clip-rule="nonzero"/></clipPath><clipPath id="2aaff6c63c"><path d="M 4.605469 273.210938 L 521.886719 -0.00390625 L 805.261719 536.507812 L 287.980469 809.722656 Z M 4.605469 273.210938 " clip-rule="nonzero"/></clipPath><clipPath id="b215cbad8b"><path d="M 89 367 L 243 367 L 243 455 L 89 455 Z M 89 367 " clip-rule="nonzero"/></clipPath><clipPath id="00ffb1efc1"><path d="M 4.605469 273.210938 L 521.886719 -0.00390625 L 805.261719 536.507812 L 287.980469 809.722656 Z M 4.605469 273.210938 " clip-rule="nonzero"/></clipPath><clipPath id="78c071d150"><path d="M 4.605469 273.210938 L 521.886719 -0.00390625 L 805.261719 536.507812 L 287.980469 809.722656 Z M 4.605469 273.210938 " clip-rule="nonzero"/></clipPath><clipPath id="4efc96d228"><path d="M 193 525 L 327 525 L 327 643 L 193 643 Z M 193 525 " clip-rule="nonzero"/></clipPath><clipPath id="45adaa108f"><path d="M 4.605469 273.210938 L 521.886719 -0.00390625 L 805.261719 536.507812 L 287.980469 809.722656 Z M 4.605469 273.210938 " clip-rule="nonzero"/></clipPath><clipPath id="17db3437db"><path d="M 4.605469 273.210938 L 521.886719 -0.00390625 L 805.261719 536.507812 L 287.980469 809.722656 Z M 4.605469 273.210938 " clip-rule="nonzero"/></clipPath><clipPath id="f0ce8f4a45"><path d="M 366 622 L 431 622 L 431 748 L 366 748 Z M 366 622 " clip-rule="nonzero"/></clipPath><clipPath id="954a50cccf"><path d="M 4.605469 273.210938 L 521.886719 -0.00390625 L 805.261719 536.507812 L 287.980469 809.722656 Z M 4.605469 273.210938 " clip-rule="nonzero"/></clipPath><clipPath id="d8b0df32f5"><path d="M 4.605469 273.210938 L 521.886719 -0.00390625 L 805.261719 536.507812 L 287.980469 809.722656 Z M 4.605469 273.210938 " clip-rule="nonzero"/></clipPath><clipPath id="3b405fd5ee"><path d="M 558 339 L 712 339 L 712 426 L 558 426 Z M 558 339 " clip-rule="nonzero"/></clipPath><clipPath id="796d986d3a"><path d="M 4.605469 273.210938 L 521.886719 -0.00390625 L 805.261719 536.507812 L 287.980469 809.722656 Z M 4.605469 273.210938 " clip-rule="nonzero"/></clipPath><clipPath id="59564b46fe"><path d="M 4.605469 273.210938 L 521.886719 -0.00390625 L 805.261719 536.507812 L 287.980469 809.722656 Z M 4.605469 273.210938 " clip-rule="nonzero"/></clipPath><clipPath id="eb31d2d530"><path d="M 579 520 L 696 520 L 696 603 L 579 603 Z M 579 520 " clip-rule="nonzero"/></clipPath><clipPath id="90ab94d1f8"><path d="M 4.605469 273.210938 L 521.886719 -0.00390625 L 805.261719 536.507812 L 287.980469 809.722656 Z M 4.605469 273.210938 " clip-rule="nonzero"/></clipPath><clipPath id="db2e23dec3"><path d="M 4.605469 273.210938 L 521.886719 -0.00390625 L 805.261719 536.507812 L 287.980469 809.722656 Z M 4.605469 273.210938 " clip-rule="nonzero"/></clipPath><clipPath id="55eb9d4c4d"><path d="M 188 348 L 444 348 L 444 458 L 188 458 Z M 188 348 " clip-rule="nonzero"/></clipPath><clipPath id="f06e0a1828"><path d="M 4.605469 273.210938 L 521.886719 -0.00390625 L 805.261719 536.507812 L 287.980469 809.722656 Z M 4.605469 273.210938 " clip-rule="nonzero"/></clipPath><clipPath id="ba2cdebee3"><path d="M 4.605469 273.210938 L 521.886719 -0.00390625 L 805.261719 536.507812 L 287.980469 809.722656 Z M 4.605469 273.210938 " clip-rule="nonzero"/></clipPath><clipPath id="18f933048c"><path d="M 266 306 L 402 306 L 402 379 L 266 379 Z M 266 306 " clip-rule="nonzero"/></clipPath><clipPath id="ef5dab6fa3"><path d="M 4.605469 273.210938 L 521.886719 -0.00390625 L 805.261719 536.507812 L 287.980469 809.722656 Z M 4.605469 273.210938 " clip-rule="nonzero"/></clipPath><clipPath id="abba81eebb"><path d="M 4.605469 273.210938 L 521.886719 -0.00390625 L 805.261719 536.507812 L 287.980469 809.722656 Z M 4.605469 273.210938 " clip-rule="nonzero"/></clipPath><clipPath id="76710dd7e2"><path d="M 229 427 L 486 427 L 486 537 L 229 537 Z M 229 427 " clip-rule="nonzero"/></clipPath><clipPath id="9fa6c4d9dc"><path d="M 4.605469 273.210938 L 521.886719 -0.00390625 L 805.261719 536.507812 L 287.980469 809.722656 Z M 4.605469 273.210938 " clip-rule="nonzero"/></clipPath><clipPath id="9dfe983a80"><path d="M 4.605469 273.210938 L 521.886719 -0.00390625 L 805.261719 536.507812 L 287.980469 809.722656 Z M 4.605469 273.210938 " clip-rule="nonzero"/></clipPath><clipPath id="6e3e2aa5bf"><path d="M 271 506 L 527 506 L 527 616 L 271 616 Z M 271 506 " clip-rule="nonzero"/></clipPath><clipPath id="826866b327"><path d="M 4.605469 273.210938 L 521.886719 -0.00390625 L 805.261719 536.507812 L 287.980469 809.722656 Z M 4.605469 273.210938 " clip-rule="nonzero"/></clipPath><clipPath id="49619d8fb8"><path d="M 4.605469 273.210938 L 521.886719 -0.00390625 L 805.261719 536.507812 L 287.980469 809.722656 Z M 4.605469 273.210938 " clip-rule="nonzero"/></clipPath><clipPath id="760f439366"><path d="M 325 589 L 496 589 L 496 673 L 325 673 Z M 325 589 " clip-rule="nonzero"/></clipPath><clipPath id="1ce5d944fd"><path d="M 4.605469 273.210938 L 521.886719 -0.00390625 L 805.261719 536.507812 L 287.980469 809.722656 Z M 4.605469 273.210938 " clip-rule="nonzero"/></clipPath><clipPath id="eed4c6f6d5"><path d="M 4.605469 273.210938 L 521.886719 -0.00390625 L 805.261719 536.507812 L 287.980469 809.722656 Z M 4.605469 273.210938 " clip-rule="nonzero"/></clipPath></defs><g clip-path="url(#5c028080de)"><g transform="matrix(1, 0, 0, 1, 0, 0.000000000000039746)"><g clip-path="url(#ad7bb84ef6)"><g clip-path="url(#ec43091a60)"><g clip-path="url(#52ee4eea4f)"><rect x="-178.2" width="1166.4" fill="#000000" height="1166.39999" y="-178.199998" fill-opacity="1"/></g></g></g></g></g><g clip-path="url(#9d74bd9316)"><g clip-path="url(#8b0c1b0caf)"><g clip-path="url(#877ac8cb48)"><path fill="#ffffff" d="M 535.871094 652.769531 C 533.285156 654.132812 530.667969 655.429688 528.015625 656.664062 C 525.367188 657.898438 522.691406 659.066406 519.984375 660.167969 C 517.277344 661.269531 514.542969 662.304688 511.789062 663.273438 C 509.03125 664.242188 506.25 665.144531 503.449219 665.976562 C 500.648438 666.808594 497.828125 667.570312 494.988281 668.265625 C 492.148438 668.957031 489.296875 669.582031 486.425781 670.136719 C 483.558594 670.691406 480.675781 671.171875 477.78125 671.585938 C 474.890625 672 471.988281 672.339844 469.078125 672.609375 C 466.167969 672.882812 463.253906 673.082031 460.335938 673.207031 C 457.414062 673.335938 454.492188 673.390625 451.570312 673.375 C 448.648438 673.359375 445.730469 673.273438 442.8125 673.113281 C 439.894531 672.957031 436.980469 672.726562 434.074219 672.421875 C 431.167969 672.121094 428.269531 671.75 425.378906 671.304688 C 422.492188 670.863281 419.617188 670.347656 416.753906 669.761719 C 413.890625 669.179688 411.042969 668.523438 408.210938 667.800781 C 405.378906 667.074219 402.566406 666.28125 399.777344 665.417969 C 396.984375 664.558594 394.214844 663.628906 391.46875 662.628906 C 388.71875 661.632812 386 660.566406 383.304688 659.4375 C 380.609375 658.304688 377.945312 657.109375 375.308594 655.847656 C 372.671875 654.585938 370.070312 653.257812 367.5 651.867188 C 364.929688 650.480469 362.394531 649.027344 359.894531 647.511719 C 357.394531 646 354.933594 644.425781 352.511719 642.789062 C 350.085938 641.15625 347.707031 639.464844 345.367188 637.710938 C 343.027344 635.960938 340.734375 634.152344 338.480469 632.289062 C 336.230469 630.425781 334.027344 628.507812 331.871094 626.535156 C 329.714844 624.5625 327.605469 622.539062 325.546875 620.464844 C 323.492188 618.390625 321.484375 616.265625 319.53125 614.09375 C 317.578125 611.917969 315.679688 609.699219 313.835938 607.433594 C 311.988281 605.164062 310.203125 602.855469 308.46875 600.5 C 306.738281 598.144531 305.066406 595.75 303.453125 593.316406 C 301.839844 590.878906 300.285156 588.402344 298.792969 585.890625 C 297.300781 583.378906 295.871094 580.832031 294.5 578.25 L 190.222656 380.816406 C 189.882812 380.171875 189.574219 379.511719 189.296875 378.832031 C 189.019531 378.15625 188.777344 377.46875 188.566406 376.765625 C 188.359375 376.066406 188.183594 375.355469 188.046875 374.636719 C 187.90625 373.921875 187.804688 373.195312 187.734375 372.46875 C 187.667969 371.742188 187.636719 371.011719 187.636719 370.28125 C 187.640625 369.546875 187.679688 368.820312 187.757812 368.09375 C 187.832031 367.363281 187.941406 366.644531 188.089844 365.925781 C 188.234375 365.210938 188.417969 364.503906 188.632812 363.804688 C 188.847656 363.105469 189.097656 362.417969 189.378906 361.742188 C 189.664062 361.070312 189.980469 360.410156 190.328125 359.769531 C 190.675781 359.125 191.054688 358.5 191.460938 357.894531 C 191.871094 357.289062 192.308594 356.703125 192.777344 356.140625 C 193.242188 355.578125 193.738281 355.039062 194.257812 354.523438 C 194.777344 354.011719 195.320312 353.523438 195.886719 353.0625 C 196.453125 352.601562 197.042969 352.167969 197.652344 351.765625 C 198.261719 351.359375 198.890625 350.988281 199.539062 350.648438 L 475.941406 204.65625 C 476.589844 204.316406 477.25 204.007812 477.925781 203.730469 C 478.605469 203.453125 479.292969 203.210938 479.992188 203.003906 C 480.695312 202.792969 481.402344 202.621094 482.121094 202.480469 C 482.839844 202.339844 483.5625 202.238281 484.289062 202.167969 C 485.019531 202.101562 485.75 202.070312 486.480469 202.074219 C 487.210938 202.078125 487.941406 202.117188 488.667969 202.191406 C 489.394531 202.265625 490.117188 202.378906 490.832031 202.523438 C 491.550781 202.667969 492.257812 202.851562 492.957031 203.066406 C 493.65625 203.28125 494.339844 203.53125 495.015625 203.816406 C 495.691406 204.097656 496.347656 204.414062 496.992188 204.761719 C 497.636719 205.109375 498.257812 205.488281 498.867188 205.898438 C 499.472656 206.304688 500.054688 206.746094 500.617188 207.210938 C 501.183594 207.675781 501.722656 208.171875 502.234375 208.691406 C 502.75 209.210938 503.238281 209.753906 503.699219 210.320312 C 504.160156 210.890625 504.59375 211.476562 504.996094 212.085938 C 505.398438 212.699219 505.769531 213.324219 506.113281 213.972656 L 610.390625 411.402344 C 611.753906 413.988281 613.050781 416.605469 614.285156 419.253906 C 615.519531 421.90625 616.6875 424.582031 617.789062 427.289062 C 618.890625 429.996094 619.925781 432.726562 620.894531 435.484375 C 621.863281 438.242188 622.761719 441.023438 623.59375 443.824219 C 624.425781 446.625 625.191406 449.445312 625.882812 452.285156 C 626.578125 455.121094 627.203125 457.976562 627.757812 460.847656 C 628.308594 463.714844 628.792969 466.597656 629.207031 469.488281 C 629.617188 472.382812 629.960938 475.285156 630.230469 478.195312 C 630.5 481.105469 630.699219 484.019531 630.828125 486.9375 C 630.957031 489.859375 631.011719 492.777344 630.996094 495.703125 C 630.980469 498.625 630.894531 501.542969 630.734375 504.460938 C 630.574219 507.378906 630.34375 510.292969 630.042969 513.199219 C 629.742188 516.105469 629.367188 519.003906 628.925781 521.890625 C 628.480469 524.78125 627.96875 527.65625 627.382812 530.519531 C 626.796875 533.382812 626.144531 536.230469 625.417969 539.0625 C 624.695312 541.894531 623.902344 544.703125 623.039062 547.496094 C 622.175781 550.289062 621.246094 553.058594 620.25 555.804688 C 619.25 558.550781 618.1875 561.273438 617.054688 563.96875 C 615.925781 566.660156 614.726562 569.328125 613.464844 571.964844 C 612.203125 574.597656 610.878906 577.203125 609.488281 579.773438 C 608.097656 582.34375 606.648438 584.878906 605.132812 587.378906 C 603.621094 589.878906 602.046875 592.339844 600.410156 594.761719 C 598.777344 597.183594 597.082031 599.566406 595.332031 601.90625 C 593.582031 604.246094 591.773438 606.539062 589.910156 608.789062 C 588.046875 611.042969 586.128906 613.246094 584.15625 615.402344 C 582.183594 617.558594 580.160156 619.667969 578.085938 621.722656 C 576.011719 623.78125 573.886719 625.789062 571.710938 627.742188 C 569.539062 629.695312 567.320312 631.59375 565.050781 633.4375 C 562.785156 635.28125 560.476562 637.070312 558.121094 638.800781 C 555.765625 640.535156 553.371094 642.207031 550.933594 643.820312 C 548.5 645.433594 546.023438 646.988281 543.511719 648.480469 C 541 649.972656 538.453125 651.402344 535.871094 652.769531 Z M 240.136719 379.707031 L 333.988281 557.394531 C 335.011719 559.332031 336.082031 561.246094 337.199219 563.128906 C 338.316406 565.015625 339.480469 566.875 340.691406 568.703125 C 341.898438 570.53125 343.152344 572.332031 344.449219 574.097656 C 345.746094 575.867188 347.085938 577.601562 348.46875 579.300781 C 349.851562 581.003906 351.277344 582.667969 352.742188 584.300781 C 354.203125 585.933594 355.707031 587.527344 357.25 589.085938 C 358.792969 590.644531 360.375 592.164062 361.992188 593.644531 C 363.609375 595.125 365.261719 596.5625 366.949219 597.964844 C 368.636719 599.363281 370.355469 600.71875 372.113281 602.035156 C 373.867188 603.347656 375.652344 604.621094 377.46875 605.847656 C 379.285156 607.074219 381.132812 608.253906 383.007812 609.390625 C 384.882812 610.527344 386.785156 611.617188 388.710938 612.660156 C 390.640625 613.703125 392.59375 614.699219 394.570312 615.644531 C 396.546875 616.59375 398.546875 617.492188 400.570312 618.339844 C 402.589844 619.191406 404.632812 619.988281 406.691406 620.738281 C 408.753906 621.488281 410.832031 622.183594 412.925781 622.832031 C 415.019531 623.476562 417.128906 624.074219 419.253906 624.617188 C 421.378906 625.160156 423.515625 625.648438 425.660156 626.089844 C 427.808594 626.527344 429.96875 626.910156 432.136719 627.246094 C 434.300781 627.578125 436.476562 627.855469 438.65625 628.082031 C 440.835938 628.308594 443.023438 628.480469 445.210938 628.597656 C 447.402344 628.714844 449.59375 628.78125 451.785156 628.792969 C 453.976562 628.800781 456.167969 628.757812 458.359375 628.664062 C 460.550781 628.566406 462.734375 628.414062 464.917969 628.210938 C 467.101562 628.007812 469.277344 627.75 471.449219 627.4375 C 473.617188 627.128906 475.78125 626.761719 477.933594 626.347656 C 480.085938 625.929688 482.226562 625.460938 484.355469 624.9375 C 486.484375 624.414062 488.601562 623.839844 490.699219 623.214844 C 492.800781 622.589844 494.886719 621.910156 496.953125 621.183594 C 499.023438 620.453125 501.070312 619.675781 503.101562 618.847656 C 505.132812 618.019531 507.140625 617.140625 509.125 616.210938 C 511.113281 615.285156 513.074219 614.308594 515.011719 613.285156 C 516.953125 612.261719 518.863281 611.191406 520.75 610.074219 C 522.636719 608.953125 524.496094 607.789062 526.324219 606.582031 C 528.152344 605.371094 529.949219 604.121094 531.71875 602.824219 C 533.484375 601.523438 535.21875 600.183594 536.921875 598.800781 C 538.621094 597.421875 540.289062 595.996094 541.921875 594.53125 C 543.554688 593.066406 545.148438 591.566406 546.707031 590.023438 C 548.265625 588.480469 549.78125 586.898438 551.261719 585.28125 C 552.742188 583.664062 554.183594 582.011719 555.582031 580.324219 C 556.980469 578.636719 558.339844 576.914062 559.652344 575.160156 C 560.96875 573.40625 562.238281 571.621094 563.464844 569.804688 C 564.695312 567.988281 565.875 566.140625 567.011719 564.265625 C 568.148438 562.390625 569.238281 560.488281 570.28125 558.5625 C 571.324219 556.632812 572.320312 554.679688 573.265625 552.703125 C 574.214844 550.726562 575.113281 548.726562 575.960938 546.703125 C 576.808594 544.683594 577.609375 542.640625 578.355469 540.582031 C 579.105469 538.519531 579.804688 536.441406 580.449219 534.347656 C 581.097656 532.253906 581.691406 530.144531 582.234375 528.019531 C 582.777344 525.894531 583.269531 523.757812 583.707031 521.609375 C 584.148438 519.460938 584.53125 517.304688 584.863281 515.136719 C 585.195312 512.96875 585.476562 510.796875 585.703125 508.617188 C 585.925781 506.433594 586.097656 504.25 586.21875 502.0625 C 586.335938 499.871094 586.402344 497.679688 586.410156 495.488281 C 586.421875 493.296875 586.378906 491.105469 586.28125 488.914062 C 586.1875 486.722656 586.035156 484.535156 585.832031 482.355469 C 585.628906 480.171875 585.371094 477.996094 585.058594 475.824219 C 584.746094 473.652344 584.382812 471.492188 583.964844 469.339844 C 583.550781 467.1875 583.078125 465.046875 582.558594 462.917969 C 582.035156 460.789062 581.460938 458.671875 580.835938 456.570312 C 580.207031 454.46875 579.53125 452.386719 578.804688 450.316406 C 578.074219 448.25 577.296875 446.203125 576.46875 444.171875 C 575.636719 442.140625 574.761719 440.132812 573.832031 438.148438 C 572.90625 436.160156 571.929688 434.199219 570.90625 432.257812 L 477.054688 254.570312 Z M 240.136719 379.707031 " fill-opacity="1" fill-rule="nonzero"/></g></g></g><g clip-path="url(#a59965e954)"><g clip-path="url(#6bd1527cb6)"><g clip-path="url(#930b9b40e4)"><path fill="#ffffff" d="M 437.566406 275.425781 L 279.625 358.851562 C 278.976562 359.191406 278.316406 359.5 277.636719 359.777344 C 276.960938 360.054688 276.273438 360.296875 275.570312 360.503906 C 274.871094 360.714844 274.160156 360.886719 273.441406 361.027344 C 272.726562 361.164062 272.003906 361.269531 271.273438 361.335938 C 270.546875 361.40625 269.816406 361.4375 269.085938 361.433594 C 268.355469 361.429688 267.625 361.390625 266.898438 361.316406 C 266.167969 361.242188 265.449219 361.128906 264.730469 360.984375 C 264.015625 360.835938 263.308594 360.65625 262.609375 360.441406 C 261.910156 360.226562 261.222656 359.976562 260.550781 359.691406 C 259.875 359.410156 259.214844 359.09375 258.574219 358.746094 C 257.929688 358.398438 257.304688 358.019531 256.699219 357.609375 C 256.09375 357.199219 255.507812 356.761719 254.945312 356.296875 C 254.382812 355.828125 253.84375 355.335938 253.328125 354.816406 C 252.816406 354.296875 252.328125 353.753906 251.867188 353.1875 C 251.40625 352.617188 250.972656 352.03125 250.570312 351.417969 C 250.167969 350.808594 249.792969 350.179688 249.453125 349.535156 L 228.597656 310.046875 C 227.742188 308.433594 226.929688 306.796875 226.15625 305.140625 C 225.382812 303.488281 224.652344 301.8125 223.960938 300.121094 C 223.269531 298.429688 222.621094 296.722656 222.015625 295 C 221.40625 293.277344 220.84375 291.539062 220.320312 289.789062 C 219.800781 288.039062 219.320312 286.273438 218.886719 284.5 C 218.449219 282.726562 218.058594 280.941406 217.710938 279.148438 C 217.363281 277.355469 217.0625 275.554688 216.800781 273.746094 C 216.542969 271.9375 216.328125 270.121094 216.15625 268.304688 C 215.988281 266.484375 215.863281 264.660156 215.78125 262.835938 C 215.703125 261.011719 215.664062 259.183594 215.675781 257.359375 C 215.683594 255.53125 215.738281 253.703125 215.835938 251.878906 C 215.933594 250.054688 216.078125 248.234375 216.265625 246.417969 C 216.453125 244.601562 216.6875 242.789062 216.964844 240.984375 C 217.242188 239.175781 217.5625 237.378906 217.925781 235.589844 C 218.292969 233.796875 218.703125 232.019531 219.152344 230.25 C 219.605469 228.476562 220.101562 226.71875 220.640625 224.976562 C 221.179688 223.230469 221.761719 221.496094 222.386719 219.78125 C 223.011719 218.0625 223.675781 216.363281 224.382812 214.679688 C 225.089844 212.992188 225.839844 211.328125 226.628906 209.679688 C 227.417969 208.03125 228.246094 206.402344 229.117188 204.796875 C 229.984375 203.191406 230.894531 201.605469 231.839844 200.042969 C 232.789062 198.480469 233.773438 196.941406 234.796875 195.429688 C 235.816406 193.914062 236.875 192.425781 237.972656 190.964844 C 239.066406 189.5 240.199219 188.066406 241.363281 186.660156 C 242.53125 185.253906 243.730469 183.878906 244.964844 182.53125 C 246.199219 181.179688 247.464844 179.863281 248.761719 178.578125 C 250.0625 177.292969 251.390625 176.042969 252.75 174.820312 C 254.109375 173.601562 255.5 172.414062 256.917969 171.261719 C 258.335938 170.109375 259.78125 168.992188 261.253906 167.914062 C 262.726562 166.832031 264.222656 165.785156 265.746094 164.78125 C 267.273438 163.773438 268.820312 162.800781 270.390625 161.871094 C 271.964844 160.9375 273.558594 160.046875 275.171875 159.195312 C 276.789062 158.339844 278.421875 157.527344 280.078125 156.753906 C 281.734375 155.980469 283.40625 155.25 285.101562 154.558594 C 286.792969 153.867188 288.5 153.21875 290.222656 152.613281 C 291.945312 152.003906 293.683594 151.441406 295.433594 150.917969 C 297.183594 150.398438 298.945312 149.917969 300.722656 149.484375 C 302.496094 149.046875 304.28125 148.65625 306.074219 148.308594 C 307.867188 147.960938 309.667969 147.65625 311.476562 147.398438 C 313.285156 147.140625 315.097656 146.925781 316.917969 146.753906 C 318.738281 146.585938 320.558594 146.460938 322.386719 146.378906 C 324.210938 146.296875 326.035156 146.261719 327.863281 146.273438 C 329.691406 146.28125 331.515625 146.335938 333.339844 146.433594 C 335.164062 146.53125 336.984375 146.675781 338.804688 146.863281 C 340.621094 147.050781 342.433594 147.285156 344.238281 147.5625 C 346.042969 147.835938 347.84375 148.160156 349.632812 148.523438 C 351.421875 148.890625 353.203125 149.296875 354.972656 149.75 C 356.742188 150.203125 358.5 150.699219 360.246094 151.238281 C 361.992188 151.777344 363.722656 152.359375 365.441406 152.984375 C 367.15625 153.605469 368.859375 154.273438 370.542969 154.980469 C 372.226562 155.6875 373.894531 156.4375 375.542969 157.226562 C 377.191406 158.015625 378.816406 158.84375 380.425781 159.714844 C 382.03125 160.582031 383.617188 161.492188 385.179688 162.4375 C 386.742188 163.386719 388.277344 164.371094 389.792969 165.390625 C 391.308594 166.414062 392.796875 167.472656 394.257812 168.570312 C 395.71875 169.664062 397.152344 170.796875 398.558594 171.960938 C 399.96875 173.128906 401.34375 174.328125 402.691406 175.5625 C 404.039062 176.796875 405.355469 178.0625 406.640625 179.359375 C 407.925781 180.65625 409.179688 181.988281 410.398438 183.347656 C 411.621094 184.707031 412.808594 186.09375 413.957031 187.511719 C 415.109375 188.929688 416.226562 190.375 417.308594 191.847656 C 418.390625 193.324219 419.433594 194.820312 420.441406 196.34375 C 421.449219 197.871094 422.417969 199.417969 423.351562 200.988281 C 424.28125 202.5625 425.175781 204.152344 426.027344 205.769531 L 446.882812 245.257812 C 447.226562 245.902344 447.535156 246.566406 447.808594 247.242188 C 448.085938 247.917969 448.328125 248.605469 448.539062 249.308594 C 448.746094 250.007812 448.921875 250.71875 449.058594 251.4375 C 449.199219 252.152344 449.304688 252.878906 449.371094 253.605469 C 449.4375 254.332031 449.472656 255.0625 449.46875 255.792969 C 449.464844 256.527344 449.425781 257.253906 449.347656 257.980469 C 449.273438 258.710938 449.164062 259.429688 449.015625 260.148438 C 448.871094 260.863281 448.691406 261.570312 448.472656 262.269531 C 448.257812 262.96875 448.007812 263.65625 447.726562 264.332031 C 447.441406 265.003906 447.128906 265.664062 446.78125 266.304688 C 446.429688 266.949219 446.054688 267.574219 445.644531 268.179688 C 445.234375 268.785156 444.796875 269.371094 444.328125 269.933594 C 443.863281 270.496094 443.371094 271.035156 442.851562 271.550781 C 442.332031 272.0625 441.785156 272.550781 441.21875 273.011719 C 440.652344 273.472656 440.0625 273.90625 439.453125 274.308594 C 438.84375 274.714844 438.214844 275.085938 437.566406 275.425781 Z M 278.511719 308.9375 L 396.96875 246.367188 L 386.542969 226.625 C 386.03125 225.65625 385.492188 224.699219 384.933594 223.757812 C 384.375 222.8125 383.792969 221.886719 383.191406 220.972656 C 382.585938 220.054688 381.957031 219.15625 381.308594 218.273438 C 380.660156 217.390625 379.992188 216.523438 379.300781 215.671875 C 378.609375 214.820312 377.898438 213.988281 377.164062 213.171875 C 376.433594 212.355469 375.679688 211.558594 374.910156 210.777344 C 374.136719 210 373.347656 209.242188 372.539062 208.5 C 371.730469 207.761719 370.90625 207.039062 370.0625 206.339844 C 369.21875 205.640625 368.355469 204.960938 367.480469 204.304688 C 366.601562 203.648438 365.710938 203.011719 364.800781 202.398438 C 363.890625 201.785156 362.96875 201.195312 362.03125 200.625 C 361.09375 200.058594 360.144531 199.511719 359.179688 198.992188 C 358.214844 198.46875 357.238281 197.972656 356.25 197.5 C 355.261719 197.027344 354.261719 196.578125 353.25 196.152344 C 352.238281 195.726562 351.21875 195.328125 350.1875 194.953125 C 349.160156 194.578125 348.121094 194.230469 347.074219 193.90625 C 346.023438 193.582031 344.96875 193.285156 343.910156 193.015625 C 342.847656 192.742188 341.777344 192.496094 340.703125 192.277344 C 339.628906 192.058594 338.550781 191.867188 337.46875 191.699219 C 336.382812 191.535156 335.296875 191.394531 334.207031 191.28125 C 333.117188 191.167969 332.023438 191.082031 330.929688 191.023438 C 329.835938 190.964844 328.738281 190.933594 327.644531 190.925781 C 326.546875 190.921875 325.449219 190.941406 324.355469 190.992188 C 323.261719 191.039062 322.167969 191.113281 321.074219 191.214844 C 319.984375 191.320312 318.894531 191.449219 317.8125 191.601562 C 316.726562 191.757812 315.644531 191.941406 314.570312 192.148438 C 313.492188 192.359375 312.421875 192.59375 311.359375 192.855469 C 310.292969 193.113281 309.234375 193.402344 308.183594 193.714844 C 307.132812 194.027344 306.089844 194.367188 305.058594 194.730469 C 304.023438 195.09375 303 195.484375 301.984375 195.898438 C 300.96875 196.3125 299.964844 196.753906 298.972656 197.214844 C 297.980469 197.679688 296.996094 198.167969 296.027344 198.679688 C 295.058594 199.191406 294.101562 199.726562 293.160156 200.285156 C 292.21875 200.84375 291.289062 201.425781 290.375 202.03125 C 289.460938 202.636719 288.558594 203.261719 287.675781 203.910156 C 286.792969 204.558594 285.925781 205.230469 285.074219 205.921875 C 284.222656 206.613281 283.390625 207.324219 282.574219 208.054688 C 281.757812 208.789062 280.960938 209.539062 280.183594 210.3125 C 279.402344 211.082031 278.644531 211.871094 277.902344 212.679688 C 277.164062 213.488281 276.441406 214.316406 275.742188 215.160156 C 275.042969 216.003906 274.367188 216.863281 273.707031 217.742188 C 273.050781 218.621094 272.414062 219.511719 271.800781 220.421875 C 271.1875 221.328125 270.597656 222.25 270.027344 223.1875 C 269.460938 224.125 268.917969 225.078125 268.394531 226.042969 C 267.875 227.007812 267.375 227.984375 266.902344 228.972656 C 266.429688 229.960938 265.980469 230.960938 265.554688 231.96875 C 265.128906 232.980469 264.730469 234 264.355469 235.03125 C 263.980469 236.0625 263.632812 237.101562 263.308594 238.148438 C 262.984375 239.195312 262.6875 240.25 262.417969 241.3125 C 262.144531 242.375 261.898438 243.441406 261.679688 244.515625 C 261.460938 245.589844 261.269531 246.667969 261.101562 247.753906 C 260.9375 248.835938 260.796875 249.925781 260.683594 251.015625 C 260.570312 252.105469 260.484375 253.199219 260.425781 254.292969 C 260.367188 255.386719 260.335938 256.480469 260.328125 257.578125 C 260.324219 258.675781 260.34375 259.769531 260.394531 260.867188 C 260.441406 261.960938 260.515625 263.054688 260.621094 264.144531 C 260.722656 265.238281 260.851562 266.324219 261.003906 267.410156 C 261.160156 268.496094 261.34375 269.574219 261.550781 270.652344 C 261.761719 271.726562 261.996094 272.800781 262.257812 273.863281 C 262.515625 274.929688 262.804688 275.984375 263.117188 277.035156 C 263.429688 278.085938 263.769531 279.128906 264.132812 280.164062 C 264.496094 281.199219 264.886719 282.222656 265.300781 283.238281 C 265.714844 284.25 266.15625 285.253906 266.617188 286.25 C 267.082031 287.242188 267.570312 288.222656 268.082031 289.191406 Z M 278.511719 308.9375 " fill-opacity="1" fill-rule="nonzero"/></g></g></g><g clip-path="url(#f30aae2e51)"><g clip-path="url(#4ffca97105)"><g clip-path="url(#9e1a4070f3)"><path fill="#ffffff" d="M 348.246094 188.976562 C 347.277344 189.492188 346.273438 189.933594 345.238281 190.300781 C 344.199219 190.667969 343.140625 190.957031 342.0625 191.164062 C 340.984375 191.375 339.894531 191.507812 338.796875 191.558594 C 337.699219 191.605469 336.601562 191.574219 335.507812 191.464844 C 334.414062 191.351562 333.335938 191.160156 332.269531 190.886719 C 331.207031 190.617188 330.164062 190.269531 329.152344 189.84375 C 328.136719 189.417969 327.160156 188.921875 326.21875 188.351562 C 325.28125 187.78125 324.386719 187.144531 323.539062 186.445312 C 322.691406 185.742188 321.902344 184.984375 321.167969 184.164062 C 320.433594 183.347656 319.761719 182.480469 319.15625 181.5625 C 318.550781 180.644531 318.015625 179.6875 317.550781 178.691406 C 317.085938 177.695312 316.695312 176.671875 316.382812 175.617188 C 316.070312 174.5625 315.835938 173.492188 315.679688 172.402344 C 315.523438 171.316406 315.449219 170.222656 315.457031 169.121094 C 315.464844 168.023438 315.550781 166.929688 315.71875 165.84375 C 315.886719 164.757812 316.132812 163.6875 316.460938 162.636719 L 332.472656 110.773438 C 332.6875 110.074219 332.9375 109.382812 333.222656 108.707031 C 333.507812 108.03125 333.824219 107.371094 334.171875 106.726562 C 334.523438 106.082031 334.902344 105.453125 335.3125 104.84375 C 335.722656 104.238281 336.164062 103.652344 336.628906 103.085938 C 337.097656 102.523438 337.59375 101.980469 338.113281 101.464844 C 338.636719 100.949219 339.183594 100.460938 339.75 99.996094 C 340.320312 99.535156 340.910156 99.101562 341.523438 98.695312 C 342.136719 98.292969 342.765625 97.917969 343.414062 97.578125 C 344.0625 97.234375 344.726562 96.921875 345.40625 96.648438 C 346.085938 96.371094 346.777344 96.125 347.480469 95.917969 C 348.183594 95.707031 348.894531 95.53125 349.617188 95.394531 C 350.335938 95.253906 351.0625 95.152344 351.792969 95.082031 C 352.523438 95.015625 353.253906 94.980469 353.988281 94.984375 C 354.722656 94.988281 355.453125 95.03125 356.183594 95.105469 C 356.914062 95.179688 357.636719 95.292969 358.355469 95.4375 C 359.074219 95.585938 359.785156 95.769531 360.484375 95.984375 C 361.1875 96.203125 361.875 96.453125 362.550781 96.734375 C 363.226562 97.019531 363.886719 97.335938 364.53125 97.6875 C 365.179688 98.035156 365.804688 98.414062 366.414062 98.828125 C 367.019531 99.238281 367.605469 99.675781 368.171875 100.144531 C 368.734375 100.613281 369.277344 101.109375 369.792969 101.628906 C 370.308594 102.152344 370.796875 102.699219 371.257812 103.269531 C 371.722656 103.835938 372.15625 104.429688 372.558594 105.039062 C 372.964844 105.652344 373.335938 106.28125 373.679688 106.933594 C 374.019531 107.582031 374.332031 108.246094 374.609375 108.925781 C 374.886719 109.605469 375.128906 110.296875 375.335938 111 C 375.546875 111.703125 375.71875 112.414062 375.859375 113.132812 C 376 113.855469 376.101562 114.578125 376.171875 115.308594 C 376.238281 116.039062 376.269531 116.773438 376.265625 117.507812 C 376.261719 118.238281 376.222656 118.972656 376.144531 119.699219 C 376.070312 120.429688 375.957031 121.15625 375.8125 121.875 C 375.664062 122.59375 375.480469 123.300781 375.265625 124.003906 L 359.28125 175.875 C 358.839844 177.277344 358.261719 178.621094 357.554688 179.910156 C 356.84375 181.195312 356.019531 182.402344 355.070312 183.527344 C 354.125 184.648438 353.078125 185.671875 351.929688 186.589844 C 350.78125 187.503906 349.554688 188.300781 348.246094 188.976562 Z M 348.246094 188.976562 " fill-opacity="1" fill-rule="nonzero"/></g></g></g><g clip-path="url(#ddca93159b)"><g clip-path="url(#7843be7d60)"><g clip-path="url(#e3fb76a283)"><path fill="#ffffff" d="M 258.574219 236.339844 C 257.28125 237.023438 255.929688 237.578125 254.527344 237.996094 C 253.121094 238.417969 251.691406 238.695312 250.234375 238.832031 C 248.773438 238.972656 247.316406 238.964844 245.859375 238.816406 C 244.402344 238.667969 242.972656 238.378906 241.570312 237.945312 L 189.679688 222.023438 C 188.96875 221.820312 188.269531 221.578125 187.585938 221.304688 C 186.898438 221.027344 186.226562 220.71875 185.574219 220.378906 C 184.917969 220.035156 184.28125 219.664062 183.660156 219.257812 C 183.042969 218.851562 182.445312 218.417969 181.871094 217.953125 C 181.296875 217.488281 180.746094 216.996094 180.21875 216.476562 C 179.691406 215.957031 179.191406 215.414062 178.71875 214.847656 C 178.246094 214.277344 177.804688 213.6875 177.390625 213.074219 C 176.976562 212.460938 176.59375 211.828125 176.242188 211.179688 C 175.890625 210.527344 175.574219 209.859375 175.289062 209.179688 C 175.003906 208.496094 174.753906 207.800781 174.539062 207.09375 C 174.324219 206.386719 174.144531 205.671875 174 204.945312 C 173.855469 204.222656 173.746094 203.492188 173.671875 202.753906 C 173.601562 202.019531 173.566406 201.28125 173.566406 200.542969 C 173.570312 199.800781 173.605469 199.066406 173.679688 198.328125 C 173.753906 197.59375 173.867188 196.863281 174.011719 196.140625 C 174.160156 195.414062 174.34375 194.699219 174.5625 193.992188 C 174.777344 193.285156 175.03125 192.59375 175.320312 191.910156 C 175.605469 191.230469 175.925781 190.5625 176.277344 189.914062 C 176.632812 189.265625 177.015625 188.632812 177.433594 188.023438 C 177.847656 187.410156 178.292969 186.824219 178.769531 186.253906 C 179.242188 185.6875 179.742188 185.144531 180.269531 184.628906 C 180.800781 184.109375 181.351562 183.621094 181.929688 183.160156 C 182.507812 182.695312 183.105469 182.261719 183.722656 181.859375 C 184.34375 181.457031 184.980469 181.085938 185.640625 180.746094 C 186.296875 180.40625 186.96875 180.101562 187.65625 179.828125 C 188.34375 179.554688 189.042969 179.316406 189.75 179.113281 C 190.460938 178.910156 191.183594 178.742188 191.910156 178.609375 C 192.636719 178.476562 193.367188 178.382812 194.105469 178.324219 C 194.84375 178.265625 195.582031 178.242188 196.320312 178.253906 C 197.058594 178.269531 197.796875 178.320312 198.53125 178.40625 C 199.265625 178.496094 199.992188 178.617188 200.714844 178.777344 C 201.4375 178.9375 202.148438 179.132812 202.851562 179.363281 L 254.742188 195.234375 C 255.792969 195.558594 256.8125 195.960938 257.800781 196.433594 C 258.792969 196.910156 259.742188 197.453125 260.652344 198.066406 C 261.5625 198.683594 262.421875 199.359375 263.234375 200.101562 C 264.042969 200.84375 264.792969 201.640625 265.484375 202.496094 C 266.179688 203.347656 266.804688 204.246094 267.363281 205.191406 C 267.921875 206.136719 268.410156 207.117188 268.824219 208.132812 C 269.242188 209.152344 269.578125 210.191406 269.839844 211.257812 C 270.101562 212.328125 270.28125 213.40625 270.382812 214.5 C 270.484375 215.59375 270.507812 216.6875 270.445312 217.785156 C 270.386719 218.882812 270.246094 219.96875 270.027344 221.042969 C 269.804688 222.121094 269.507812 223.175781 269.132812 224.207031 C 268.757812 225.238281 268.308594 226.238281 267.785156 227.203125 C 267.261719 228.167969 266.671875 229.089844 266.011719 229.96875 C 265.351562 230.847656 264.632812 231.671875 263.851562 232.445312 C 263.070312 233.21875 262.238281 233.929688 261.351562 234.578125 C 260.464844 235.226562 259.535156 235.808594 258.5625 236.320312 Z M 258.574219 236.339844 " fill-opacity="1" fill-rule="nonzero"/></g></g></g><g clip-path="url(#fa23dfe6c8)"><g clip-path="url(#073a31b7df)"><g clip-path="url(#48cfe90143)"><path fill="#ffffff" d="M 535.871094 652.769531 C 535.222656 653.113281 534.5625 653.421875 533.882812 653.699219 C 533.207031 653.976562 532.519531 654.21875 531.816406 654.425781 C 531.117188 654.636719 530.40625 654.808594 529.6875 654.949219 C 528.972656 655.085938 528.25 655.191406 527.519531 655.257812 C 526.792969 655.328125 526.0625 655.359375 525.332031 655.355469 C 524.601562 655.351562 523.871094 655.3125 523.144531 655.238281 C 522.414062 655.160156 521.695312 655.050781 520.976562 654.90625 C 520.261719 654.757812 519.554688 654.578125 518.855469 654.363281 C 518.15625 654.148438 517.46875 653.898438 516.796875 653.613281 C 516.121094 653.332031 515.460938 653.015625 514.820312 652.667969 C 514.175781 652.320312 513.550781 651.941406 512.945312 651.53125 C 512.339844 651.121094 511.753906 650.683594 511.191406 650.21875 C 510.628906 649.75 510.089844 649.257812 509.574219 648.738281 C 509.0625 648.21875 508.574219 647.675781 508.113281 647.105469 C 507.652344 646.539062 507.21875 645.949219 506.816406 645.339844 C 506.414062 644.730469 506.039062 644.101562 505.699219 643.457031 L 328.425781 307.824219 C 328.082031 307.175781 327.773438 306.515625 327.496094 305.835938 C 327.222656 305.160156 326.976562 304.472656 326.769531 303.769531 C 326.5625 303.070312 326.386719 302.359375 326.246094 301.644531 C 326.109375 300.925781 326.003906 300.203125 325.9375 299.472656 C 325.867188 298.746094 325.835938 298.015625 325.839844 297.285156 C 325.84375 296.554688 325.882812 295.824219 325.957031 295.097656 C 326.035156 294.371094 326.144531 293.648438 326.289062 292.929688 C 326.4375 292.214844 326.617188 291.507812 326.832031 290.808594 C 327.050781 290.109375 327.300781 289.421875 327.582031 288.75 C 327.863281 288.074219 328.179688 287.417969 328.527344 286.773438 C 328.875 286.128906 329.253906 285.503906 329.664062 284.898438 C 330.074219 284.292969 330.511719 283.707031 330.976562 283.144531 C 331.445312 282.582031 331.9375 282.042969 332.457031 281.53125 C 332.976562 281.015625 333.519531 280.527344 334.089844 280.066406 C 334.65625 279.605469 335.246094 279.171875 335.855469 278.769531 C 336.464844 278.367188 337.09375 277.992188 337.738281 277.652344 C 338.386719 277.3125 339.046875 277 339.726562 276.726562 C 340.402344 276.449219 341.089844 276.207031 341.792969 275.996094 C 342.492188 275.789062 343.203125 275.613281 343.921875 275.476562 C 344.636719 275.335938 345.359375 275.234375 346.089844 275.164062 C 346.816406 275.097656 347.546875 275.0625 348.277344 275.066406 C 349.007812 275.070312 349.738281 275.109375 350.464844 275.1875 C 351.191406 275.261719 351.914062 275.371094 352.632812 275.519531 C 353.347656 275.664062 354.054688 275.84375 354.753906 276.0625 C 355.453125 276.277344 356.140625 276.527344 356.8125 276.808594 C 357.488281 277.09375 358.148438 277.410156 358.789062 277.757812 C 359.433594 278.105469 360.058594 278.484375 360.664062 278.890625 C 361.269531 279.300781 361.855469 279.738281 362.417969 280.207031 C 362.980469 280.671875 363.519531 281.164062 364.035156 281.683594 C 364.546875 282.203125 365.035156 282.75 365.496094 283.316406 C 365.957031 283.882812 366.390625 284.472656 366.792969 285.082031 C 367.195312 285.691406 367.570312 286.320312 367.910156 286.96875 L 545.183594 622.601562 C 545.527344 623.246094 545.835938 623.910156 546.113281 624.585938 C 546.386719 625.261719 546.628906 625.953125 546.839844 626.652344 C 547.046875 627.351562 547.222656 628.0625 547.359375 628.78125 C 547.5 629.5 547.605469 630.222656 547.671875 630.949219 C 547.738281 631.675781 547.773438 632.40625 547.769531 633.136719 C 547.765625 633.871094 547.726562 634.597656 547.652344 635.328125 C 547.574219 636.054688 547.464844 636.777344 547.316406 637.492188 C 547.171875 638.207031 546.992188 638.917969 546.773438 639.613281 C 546.558594 640.3125 546.308594 641 546.027344 641.675781 C 545.742188 642.347656 545.429688 643.007812 545.082031 643.652344 C 544.734375 644.292969 544.355469 644.917969 543.945312 645.523438 C 543.535156 646.128906 543.097656 646.714844 542.628906 647.277344 C 542.164062 647.839844 541.671875 648.378906 541.152344 648.894531 C 540.632812 649.410156 540.089844 649.894531 539.519531 650.359375 C 538.953125 650.820312 538.363281 651.25 537.753906 651.652344 C 537.144531 652.058594 536.515625 652.429688 535.871094 652.769531 Z M 535.871094 652.769531 " fill-opacity="1" fill-rule="nonzero"/></g></g></g><g clip-path="url(#1bc3ba0b9c)"><g clip-path="url(#98b0667920)"><g clip-path="url(#2aaff6c63c)"><path fill="#ffffff" d="M 586.199219 222.175781 L 507.226562 263.886719 C 506.578125 264.226562 505.917969 264.535156 505.238281 264.8125 C 504.5625 265.089844 503.875 265.332031 503.171875 265.542969 C 502.472656 265.75 501.761719 265.925781 501.046875 266.0625 C 500.328125 266.203125 499.605469 266.304688 498.875 266.375 C 498.148438 266.441406 497.417969 266.472656 496.6875 266.472656 C 495.957031 266.46875 495.226562 266.429688 494.5 266.351562 C 493.773438 266.277344 493.050781 266.167969 492.332031 266.019531 C 491.617188 265.875 490.910156 265.691406 490.210938 265.476562 C 489.511719 265.261719 488.824219 265.011719 488.152344 264.730469 C 487.476562 264.445312 486.816406 264.128906 486.175781 263.78125 C 485.53125 263.433594 484.90625 263.054688 484.300781 262.648438 C 483.695312 262.238281 483.109375 261.800781 482.546875 261.332031 C 481.984375 260.867188 481.445312 260.371094 480.929688 259.851562 C 480.417969 259.332031 479.929688 258.789062 479.46875 258.222656 C 479.007812 257.65625 478.574219 257.066406 478.171875 256.457031 C 477.769531 255.847656 477.394531 255.21875 477.054688 254.570312 C 476.710938 253.925781 476.402344 253.261719 476.128906 252.585938 C 475.851562 251.910156 475.609375 251.21875 475.398438 250.519531 C 475.191406 249.820312 475.015625 249.109375 474.878906 248.390625 C 474.738281 247.671875 474.632812 246.949219 474.566406 246.222656 C 474.5 245.492188 474.464844 244.765625 474.46875 244.03125 C 474.472656 243.300781 474.511719 242.574219 474.589844 241.84375 C 474.664062 241.117188 474.773438 240.394531 474.921875 239.679688 C 475.066406 238.964844 475.246094 238.253906 475.464844 237.554688 C 475.679688 236.859375 475.929688 236.171875 476.210938 235.496094 C 476.496094 234.824219 476.808594 234.164062 477.15625 233.519531 C 477.507812 232.878906 477.882812 232.253906 478.292969 231.648438 C 478.703125 231.042969 479.140625 230.457031 479.609375 229.894531 C 480.074219 229.332031 480.566406 228.792969 481.085938 228.277344 C 481.605469 227.761719 482.152344 227.273438 482.71875 226.8125 C 483.285156 226.351562 483.875 225.921875 484.484375 225.515625 C 485.09375 225.113281 485.722656 224.742188 486.371094 224.398438 L 557.167969 187.007812 L 563.753906 165.675781 C 563.980469 164.988281 564.238281 164.3125 564.527344 163.652344 C 564.820312 162.988281 565.140625 162.34375 565.496094 161.710938 C 565.847656 161.082031 566.234375 160.46875 566.644531 159.875 C 567.058594 159.28125 567.5 158.710938 567.96875 158.160156 C 568.4375 157.609375 568.929688 157.082031 569.453125 156.578125 C 569.972656 156.078125 570.515625 155.601562 571.082031 155.152344 C 571.648438 154.699219 572.234375 154.277344 572.839844 153.886719 C 573.449219 153.492188 574.074219 153.132812 574.714844 152.796875 C 575.355469 152.464844 576.015625 152.167969 576.6875 151.898438 C 577.355469 151.628906 578.039062 151.394531 578.734375 151.191406 C 579.429688 150.992188 580.132812 150.824219 580.84375 150.6875 C 581.554688 150.554688 582.269531 150.457031 582.988281 150.390625 C 583.707031 150.328125 584.429688 150.296875 585.152344 150.304688 C 585.875 150.3125 586.597656 150.351562 587.316406 150.425781 C 588.035156 150.503906 588.75 150.613281 589.457031 150.757812 C 590.167969 150.90625 590.867188 151.085938 591.558594 151.296875 C 592.25 151.511719 592.925781 151.757812 593.59375 152.035156 C 594.261719 152.316406 594.914062 152.628906 595.550781 152.96875 C 596.1875 153.3125 596.804688 153.683594 597.40625 154.085938 C 598.007812 154.492188 598.585938 154.921875 599.144531 155.378906 C 599.703125 155.839844 600.238281 156.324219 600.75 156.835938 C 601.261719 157.347656 601.75 157.882812 602.207031 158.441406 C 602.667969 159 603.097656 159.578125 603.503906 160.175781 C 603.90625 160.777344 604.277344 161.394531 604.621094 162.03125 C 604.964844 162.667969 605.277344 163.320312 605.558594 163.988281 C 605.835938 164.65625 606.085938 165.332031 606.296875 166.023438 C 606.511719 166.714844 606.691406 167.414062 606.839844 168.121094 C 606.984375 168.832031 607.097656 169.542969 607.171875 170.261719 C 607.25 170.984375 607.289062 171.703125 607.296875 172.425781 C 607.304688 173.148438 607.277344 173.871094 607.210938 174.59375 C 607.148438 175.3125 607.050781 176.027344 606.917969 176.738281 C 606.785156 177.449219 606.617188 178.152344 606.414062 178.847656 L 597.101562 209.019531 C 596.667969 210.417969 596.105469 211.765625 595.40625 213.054688 C 594.710938 214.34375 593.894531 215.550781 592.957031 216.679688 C 592.023438 217.808594 590.984375 218.835938 589.847656 219.761719 C 588.710938 220.683594 587.492188 221.488281 586.199219 222.175781 Z M 586.199219 222.175781 " fill-opacity="1" fill-rule="nonzero"/></g></g></g><g clip-path="url(#b215cbad8b)"><g clip-path="url(#00ffb1efc1)"><g clip-path="url(#78c071d150)"><path fill="#ffffff" d="M 230.820312 409.875 L 151.847656 451.589844 C 150.554688 452.273438 149.203125 452.824219 147.796875 453.242188 C 146.390625 453.660156 144.960938 453.9375 143.5 454.074219 C 142.039062 454.210938 140.582031 454.203125 139.125 454.050781 C 137.664062 453.898438 136.234375 453.609375 134.835938 453.175781 L 104.664062 443.859375 C 103.976562 443.636719 103.304688 443.378906 102.640625 443.085938 C 101.980469 442.796875 101.332031 442.472656 100.703125 442.121094 C 100.070312 441.765625 99.457031 441.382812 98.863281 440.96875 C 98.273438 440.554688 97.699219 440.113281 97.148438 439.644531 C 96.597656 439.175781 96.070312 438.683594 95.570312 438.164062 C 95.066406 437.644531 94.589844 437.101562 94.140625 436.535156 C 93.691406 435.96875 93.269531 435.382812 92.875 434.773438 C 92.484375 434.167969 92.121094 433.542969 91.789062 432.898438 C 91.457031 432.257812 91.15625 431.601562 90.886719 430.929688 C 90.621094 430.257812 90.382812 429.574219 90.183594 428.878906 C 89.980469 428.1875 89.8125 427.484375 89.679688 426.773438 C 89.546875 426.0625 89.445312 425.347656 89.382812 424.625 C 89.316406 423.90625 89.289062 423.183594 89.292969 422.460938 C 89.300781 421.738281 89.339844 421.015625 89.417969 420.296875 C 89.492188 419.578125 89.605469 418.863281 89.75 418.15625 C 89.894531 417.449219 90.074219 416.75 90.289062 416.058594 C 90.5 415.367188 90.746094 414.6875 91.027344 414.019531 C 91.304688 413.351562 91.617188 412.703125 91.960938 412.066406 C 92.300781 411.429688 92.675781 410.808594 93.078125 410.207031 C 93.480469 409.609375 93.910156 409.027344 94.371094 408.46875 C 94.828125 407.910156 95.316406 407.375 95.824219 406.863281 C 96.335938 406.351562 96.871094 405.867188 97.429688 405.40625 C 97.988281 404.949219 98.566406 404.515625 99.167969 404.113281 C 99.769531 403.710938 100.386719 403.335938 101.023438 402.992188 C 101.660156 402.648438 102.308594 402.335938 102.976562 402.058594 C 103.644531 401.777344 104.324219 401.53125 105.011719 401.316406 C 105.703125 401.101562 106.402344 400.921875 107.113281 400.777344 C 107.820312 400.628906 108.535156 400.519531 109.253906 400.441406 C 109.972656 400.367188 110.691406 400.324219 111.417969 400.316406 C 112.140625 400.3125 112.859375 400.339844 113.582031 400.402344 C 114.300781 400.464844 115.015625 400.5625 115.726562 400.699219 C 116.4375 400.832031 117.140625 400.996094 117.835938 401.199219 L 139.167969 407.785156 L 209.964844 370.390625 C 210.613281 370.046875 211.273438 369.738281 211.953125 369.464844 C 212.628906 369.1875 213.316406 368.945312 214.019531 368.734375 C 214.71875 368.527344 215.429688 368.351562 216.144531 368.214844 C 216.863281 368.074219 217.585938 367.96875 218.316406 367.902344 C 219.042969 367.835938 219.773438 367.800781 220.503906 367.804688 C 221.234375 367.808594 221.964844 367.847656 222.691406 367.925781 C 223.417969 368 224.140625 368.109375 224.859375 368.257812 C 225.574219 368.402344 226.28125 368.582031 226.980469 368.800781 C 227.679688 369.015625 228.367188 369.265625 229.039062 369.546875 C 229.714844 369.832031 230.371094 370.144531 231.015625 370.496094 C 231.660156 370.84375 232.285156 371.222656 232.890625 371.628906 C 233.496094 372.039062 234.082031 372.476562 234.644531 372.945312 C 235.207031 373.410156 235.746094 373.902344 236.261719 374.421875 C 236.773438 374.941406 237.261719 375.488281 237.722656 376.054688 C 238.183594 376.621094 238.617188 377.210938 239.019531 377.820312 C 239.421875 378.429688 239.796875 379.058594 240.136719 379.707031 C 240.476562 380.351562 240.789062 381.015625 241.0625 381.691406 C 241.339844 382.367188 241.582031 383.058594 241.792969 383.757812 C 242 384.457031 242.175781 385.167969 242.3125 385.886719 C 242.453125 386.605469 242.554688 387.328125 242.625 388.054688 C 242.691406 388.78125 242.726562 389.511719 242.722656 390.242188 C 242.71875 390.976562 242.679688 391.703125 242.601562 392.429688 C 242.527344 393.160156 242.417969 393.882812 242.269531 394.597656 C 242.125 395.3125 241.945312 396.023438 241.726562 396.71875 C 241.511719 397.417969 241.261719 398.105469 240.980469 398.78125 C 240.695312 399.453125 240.382812 400.113281 240.03125 400.753906 C 239.683594 401.398438 239.304688 402.023438 238.898438 402.628906 C 238.488281 403.234375 238.050781 403.820312 237.582031 404.382812 C 237.117188 404.945312 236.625 405.484375 236.105469 406 C 235.585938 406.515625 235.039062 407 234.472656 407.460938 C 233.90625 407.925781 233.316406 408.355469 232.707031 408.757812 C 232.097656 409.164062 231.46875 409.535156 230.820312 409.875 Z M 230.820312 409.875 " fill-opacity="1" fill-rule="nonzero"/></g></g></g><g clip-path="url(#4efc96d228)"><g clip-path="url(#45adaa108f)"><g clip-path="url(#17db3437db)"><path fill="#ffffff" d="M 225.957031 639.703125 C 224.984375 640.214844 223.984375 640.65625 222.949219 641.019531 C 221.910156 641.382812 220.855469 641.671875 219.777344 641.878906 C 218.699219 642.085938 217.613281 642.214844 216.515625 642.265625 C 215.417969 642.3125 214.324219 642.28125 213.230469 642.167969 C 212.140625 642.054688 211.0625 641.863281 210 641.589844 C 208.933594 641.316406 207.898438 640.96875 206.886719 640.542969 C 205.875 640.117188 204.898438 639.621094 203.957031 639.050781 C 203.019531 638.484375 202.128906 637.847656 201.28125 637.148438 C 200.4375 636.445312 199.648438 635.6875 198.914062 634.871094 C 198.183594 634.054688 197.511719 633.1875 196.90625 632.273438 C 196.300781 631.355469 195.765625 630.402344 195.300781 629.40625 C 194.839844 628.410156 194.449219 627.386719 194.136719 626.335938 C 193.820312 625.285156 193.585938 624.214844 193.429688 623.128906 C 193.277344 622.039062 193.199219 620.949219 193.207031 619.851562 C 193.210938 618.753906 193.296875 617.660156 193.464844 616.574219 C 193.628906 615.492188 193.875 614.421875 194.199219 613.375 L 203.511719 583.203125 C 203.945312 581.804688 204.511719 580.457031 205.207031 579.167969 C 205.90625 577.878906 206.722656 576.667969 207.65625 575.539062 C 208.589844 574.414062 209.628906 573.386719 210.765625 572.460938 C 211.902344 571.535156 213.121094 570.730469 214.417969 570.046875 L 293.390625 528.335938 C 294.035156 527.992188 294.699219 527.683594 295.375 527.40625 C 296.050781 527.132812 296.738281 526.890625 297.441406 526.679688 C 298.140625 526.472656 298.851562 526.296875 299.570312 526.160156 C 300.285156 526.019531 301.011719 525.914062 301.738281 525.847656 C 302.464844 525.78125 303.195312 525.746094 303.925781 525.75 C 304.660156 525.753906 305.386719 525.792969 306.113281 525.867188 C 306.84375 525.945312 307.5625 526.054688 308.28125 526.203125 C 308.996094 526.347656 309.703125 526.527344 310.402344 526.746094 C 311.101562 526.960938 311.789062 527.210938 312.464844 527.492188 C 313.136719 527.777344 313.796875 528.089844 314.4375 528.4375 C 315.082031 528.785156 315.707031 529.164062 316.3125 529.574219 C 316.917969 529.984375 317.503906 530.421875 318.066406 530.890625 C 318.628906 531.355469 319.167969 531.847656 319.683594 532.367188 C 320.195312 532.886719 320.683594 533.429688 321.144531 534 C 321.605469 534.566406 322.039062 535.15625 322.441406 535.765625 C 322.847656 536.375 323.21875 537.003906 323.558594 537.652344 C 323.902344 538.296875 324.210938 538.957031 324.488281 539.636719 C 324.761719 540.3125 325.007812 541 325.214844 541.703125 C 325.421875 542.402344 325.597656 543.113281 325.738281 543.832031 C 325.875 544.546875 325.980469 545.269531 326.046875 546 C 326.117188 546.726562 326.148438 547.457031 326.144531 548.1875 C 326.140625 548.917969 326.101562 549.648438 326.027344 550.375 C 325.949219 551.105469 325.839844 551.824219 325.695312 552.542969 C 325.546875 553.257812 325.367188 553.964844 325.152344 554.664062 C 324.933594 555.363281 324.6875 556.050781 324.402344 556.722656 C 324.121094 557.398438 323.804688 558.058594 323.457031 558.699219 C 323.109375 559.34375 322.730469 559.96875 322.320312 560.574219 C 321.910156 561.179688 321.472656 561.765625 321.007812 562.328125 C 320.539062 562.890625 320.046875 563.429688 319.527344 563.945312 C 319.007812 564.457031 318.464844 564.945312 317.894531 565.40625 C 317.328125 565.867188 316.738281 566.300781 316.128906 566.703125 C 315.519531 567.109375 314.890625 567.480469 314.246094 567.820312 L 243.445312 605.214844 L 236.859375 626.546875 C 236.425781 627.949219 235.863281 629.292969 235.164062 630.582031 C 234.46875 631.871094 233.652344 633.082031 232.71875 634.210938 C 231.78125 635.339844 230.746094 636.363281 229.609375 637.289062 C 228.46875 638.214844 227.253906 639.019531 225.957031 639.703125 Z M 225.957031 639.703125 " fill-opacity="1" fill-rule="nonzero"/></g></g></g><g clip-path="url(#f0ce8f4a45)"><g clip-path="url(#954a50cccf)"><g clip-path="url(#d8b0df32f5)"><path fill="#ffffff" d="M 409.140625 744.957031 C 408.496094 745.296875 407.832031 745.605469 407.15625 745.882812 C 406.480469 746.160156 405.789062 746.402344 405.089844 746.613281 C 404.390625 746.820312 403.679688 746.996094 402.960938 747.132812 C 402.242188 747.273438 401.519531 747.375 400.792969 747.445312 C 400.0625 747.511719 399.335938 747.542969 398.601562 747.542969 C 397.871094 747.539062 397.144531 747.496094 396.414062 747.421875 C 395.6875 747.347656 394.964844 747.238281 394.25 747.089844 C 393.535156 746.945312 392.824219 746.761719 392.125 746.546875 C 391.429688 746.332031 390.742188 746.082031 390.066406 745.800781 C 389.394531 745.515625 388.734375 745.199219 388.089844 744.851562 C 387.449219 744.503906 386.824219 744.125 386.21875 743.71875 C 385.613281 743.308594 385.027344 742.871094 384.464844 742.402344 C 383.902344 741.9375 383.363281 741.441406 382.847656 740.921875 C 382.332031 740.402344 381.84375 739.859375 381.382812 739.292969 C 380.921875 738.726562 380.492188 738.136719 380.085938 737.527344 C 379.683594 736.917969 379.3125 736.289062 378.972656 735.640625 L 369.09375 716.945312 C 368.410156 715.648438 367.859375 714.296875 367.441406 712.894531 C 367.023438 711.488281 366.746094 710.054688 366.609375 708.597656 C 366.472656 707.136719 366.480469 705.675781 366.632812 704.21875 C 366.78125 702.761719 367.074219 701.332031 367.507812 699.929688 L 386.652344 637.980469 C 386.867188 637.28125 387.117188 636.59375 387.398438 635.917969 C 387.683594 635.246094 387.996094 634.585938 388.34375 633.941406 C 388.691406 633.300781 389.070312 632.675781 389.480469 632.066406 C 389.890625 631.460938 390.328125 630.878906 390.792969 630.3125 C 391.261719 629.75 391.753906 629.210938 392.273438 628.695312 C 392.792969 628.183594 393.335938 627.695312 393.902344 627.230469 C 394.472656 626.769531 395.0625 626.339844 395.671875 625.933594 C 396.28125 625.53125 396.910156 625.160156 397.554688 624.816406 C 398.203125 624.476562 398.863281 624.164062 399.539062 623.890625 C 400.21875 623.613281 400.90625 623.371094 401.609375 623.160156 C 402.308594 622.949219 403.019531 622.777344 403.734375 622.636719 C 404.453125 622.496094 405.175781 622.394531 405.90625 622.324219 C 406.632812 622.257812 407.363281 622.226562 408.09375 622.226562 C 408.828125 622.230469 409.554688 622.269531 410.285156 622.347656 C 411.011719 622.421875 411.734375 622.53125 412.449219 622.675781 C 413.167969 622.824219 413.875 623.003906 414.574219 623.21875 C 415.273438 623.433594 415.957031 623.683594 416.632812 623.96875 C 417.308594 624.25 417.964844 624.566406 418.609375 624.914062 C 419.253906 625.261719 419.878906 625.640625 420.484375 626.046875 C 421.089844 626.457031 421.675781 626.894531 422.238281 627.363281 C 422.800781 627.828125 423.339844 628.320312 423.855469 628.839844 C 424.371094 629.359375 424.859375 629.90625 425.320312 630.472656 C 425.78125 631.039062 426.214844 631.628906 426.617188 632.238281 C 427.019531 632.847656 427.394531 633.476562 427.734375 634.125 C 428.078125 634.769531 428.386719 635.433594 428.664062 636.109375 C 428.941406 636.785156 429.183594 637.476562 429.394531 638.175781 C 429.601562 638.875 429.777344 639.585938 429.914062 640.304688 C 430.054688 641.023438 430.160156 641.746094 430.226562 642.472656 C 430.296875 643.203125 430.328125 643.929688 430.324219 644.664062 C 430.320312 645.394531 430.28125 646.125 430.207031 646.851562 C 430.132812 647.578125 430.019531 648.300781 429.875 649.015625 C 429.730469 649.734375 429.546875 650.441406 429.332031 651.140625 L 412.9375 704.242188 L 418.496094 714.765625 C 418.839844 715.414062 419.148438 716.074219 419.425781 716.753906 C 419.703125 717.429688 419.945312 718.121094 420.152344 718.824219 C 420.363281 719.523438 420.535156 720.234375 420.675781 720.953125 C 420.8125 721.671875 420.917969 722.394531 420.984375 723.125 C 421.054688 723.855469 421.085938 724.585938 421.082031 725.316406 C 421.078125 726.050781 421.035156 726.78125 420.960938 727.507812 C 420.886719 728.234375 420.773438 728.957031 420.625 729.675781 C 420.480469 730.394531 420.296875 731.101562 420.082031 731.800781 C 419.863281 732.5 419.613281 733.1875 419.328125 733.863281 C 419.046875 734.535156 418.726562 735.195312 418.378906 735.839844 C 418.03125 736.484375 417.648438 737.109375 417.238281 737.714844 C 416.828125 738.320312 416.390625 738.90625 415.921875 739.46875 C 415.453125 740.03125 414.957031 740.570312 414.4375 741.085938 C 413.917969 741.597656 413.371094 742.085938 412.800781 742.546875 C 412.234375 743.007812 411.644531 743.4375 411.03125 743.839844 C 410.417969 744.246094 409.789062 744.617188 409.140625 744.957031 Z M 409.140625 744.957031 " fill-opacity="1" fill-rule="nonzero"/></g></g></g><g clip-path="url(#3b405fd5ee)"><g clip-path="url(#796d986d3a)"><g clip-path="url(#59564b46fe)"><path fill="#ffffff" d="M 699.503906 390.371094 C 698.207031 391.058594 696.859375 391.613281 695.453125 392.035156 C 694.046875 392.453125 692.613281 392.734375 691.15625 392.871094 C 689.695312 393.003906 688.234375 392.996094 686.777344 392.84375 C 685.316406 392.691406 683.890625 392.394531 682.488281 391.957031 L 662.105469 385.679688 L 591.304688 423.074219 C 590.660156 423.417969 589.996094 423.726562 589.320312 424.003906 C 588.644531 424.277344 587.953125 424.519531 587.253906 424.730469 C 586.550781 424.9375 585.84375 425.113281 585.125 425.253906 C 584.40625 425.390625 583.683594 425.496094 582.957031 425.5625 C 582.226562 425.632812 581.5 425.664062 580.765625 425.660156 C 580.035156 425.65625 579.304688 425.617188 578.578125 425.542969 C 577.851562 425.464844 577.128906 425.355469 576.414062 425.210938 C 575.695312 425.0625 574.988281 424.882812 574.289062 424.667969 C 573.589844 424.449219 572.90625 424.199219 572.230469 423.917969 C 571.558594 423.632812 570.898438 423.320312 570.253906 422.972656 C 569.613281 422.625 568.988281 422.246094 568.382812 421.835938 C 567.773438 421.425781 567.191406 420.988281 566.628906 420.523438 C 566.066406 420.054688 565.527344 419.5625 565.011719 419.042969 C 564.496094 418.523438 564.007812 417.980469 563.546875 417.410156 C 563.085938 416.84375 562.65625 416.253906 562.25 415.644531 C 561.847656 415.035156 561.476562 414.40625 561.132812 413.761719 C 560.792969 413.113281 560.484375 412.453125 560.207031 411.773438 C 559.929688 411.097656 559.6875 410.410156 559.480469 409.707031 C 559.269531 409.007812 559.097656 408.296875 558.957031 407.578125 C 558.816406 406.863281 558.714844 406.140625 558.644531 405.410156 C 558.578125 404.683594 558.546875 403.953125 558.550781 403.222656 C 558.554688 402.492188 558.59375 401.761719 558.667969 401.035156 C 558.742188 400.304688 558.855469 399.585938 559 398.867188 C 559.144531 398.152344 559.328125 397.445312 559.542969 396.746094 C 559.757812 396.046875 560.007812 395.359375 560.292969 394.6875 C 560.574219 394.011719 560.890625 393.351562 561.238281 392.710938 C 561.585938 392.066406 561.964844 391.441406 562.375 390.835938 C 562.78125 390.230469 563.222656 389.644531 563.6875 389.082031 C 564.15625 388.519531 564.648438 387.980469 565.167969 387.464844 C 565.6875 386.953125 566.230469 386.464844 566.796875 386.003906 C 567.367188 385.542969 567.953125 385.109375 568.5625 384.707031 C 569.175781 384.304688 569.800781 383.929688 570.449219 383.589844 L 649.421875 341.878906 C 650.714844 341.191406 652.066406 340.640625 653.46875 340.21875 C 654.875 339.800781 656.304688 339.523438 657.761719 339.382812 C 659.222656 339.246094 660.679688 339.25 662.136719 339.402344 C 663.59375 339.550781 665.023438 339.839844 666.425781 340.269531 L 695.660156 349.296875 C 696.710938 349.621094 697.730469 350.019531 698.71875 350.496094 C 699.710938 350.96875 700.660156 351.511719 701.570312 352.128906 C 702.480469 352.742188 703.339844 353.421875 704.148438 354.160156 C 704.957031 354.902344 705.707031 355.699219 706.402344 356.550781 C 707.09375 357.402344 707.71875 358.300781 708.277344 359.246094 C 708.839844 360.191406 709.324219 361.171875 709.742188 362.1875 C 710.15625 363.203125 710.496094 364.246094 710.753906 365.3125 C 711.015625 366.378906 711.199219 367.457031 711.300781 368.550781 C 711.402344 369.644531 711.425781 370.738281 711.367188 371.835938 C 711.308594 372.929688 711.167969 374.015625 710.949219 375.09375 C 710.730469 376.167969 710.429688 377.222656 710.058594 378.253906 C 709.683594 379.285156 709.234375 380.285156 708.710938 381.25 C 708.1875 382.214844 707.597656 383.136719 706.941406 384.015625 C 706.28125 384.894531 705.5625 385.71875 704.785156 386.492188 C 704.003906 387.265625 703.171875 387.976562 702.285156 388.625 C 701.402344 389.277344 700.472656 389.859375 699.503906 390.371094 Z M 699.503906 390.371094 " fill-opacity="1" fill-rule="nonzero"/></g></g></g><g clip-path="url(#eb31d2d530)"><g clip-path="url(#90ab94d1f8)"><g clip-path="url(#db2e23dec3)"><path fill="#ffffff" d="M 683.453125 600.070312 C 682.804688 600.414062 682.144531 600.722656 681.46875 601 C 680.789062 601.277344 680.101562 601.519531 679.398438 601.726562 C 678.699219 601.9375 677.988281 602.109375 677.273438 602.25 C 676.554688 602.386719 675.832031 602.492188 675.101562 602.558594 C 674.375 602.628906 673.644531 602.660156 672.914062 602.65625 C 672.183594 602.652344 671.453125 602.613281 670.726562 602.539062 C 670 602.460938 669.277344 602.351562 668.558594 602.207031 C 667.84375 602.058594 667.136719 601.878906 666.4375 601.664062 C 665.738281 601.445312 665.050781 601.199219 664.378906 600.914062 C 663.703125 600.632812 663.046875 600.316406 662.402344 599.96875 C 661.757812 599.621094 661.132812 599.242188 660.527344 598.832031 C 659.921875 598.421875 659.335938 597.984375 658.773438 597.519531 C 658.210938 597.050781 657.671875 596.558594 657.160156 596.039062 C 656.644531 595.519531 656.15625 594.976562 655.695312 594.40625 C 655.234375 593.839844 654.800781 593.25 654.398438 592.640625 C 653.996094 592.03125 653.621094 591.402344 653.28125 590.757812 L 647.722656 580.234375 L 594.640625 563.828125 C 593.972656 563.589844 593.3125 563.320312 592.667969 563.019531 C 592.023438 562.722656 591.390625 562.390625 590.777344 562.03125 C 590.164062 561.667969 589.570312 561.28125 588.992188 560.863281 C 588.417969 560.445312 587.859375 560 587.328125 559.527344 C 586.792969 559.058594 586.28125 558.5625 585.796875 558.042969 C 585.308594 557.523438 584.847656 556.980469 584.414062 556.417969 C 583.980469 555.855469 583.570312 555.273438 583.191406 554.667969 C 582.8125 554.066406 582.464844 553.445312 582.144531 552.8125 C 581.824219 552.175781 581.535156 551.523438 581.277344 550.863281 C 581.019531 550.199219 580.792969 549.523438 580.601562 548.839844 C 580.410156 548.152344 580.25 547.460938 580.121094 546.757812 C 579.996094 546.058594 579.902344 545.355469 579.84375 544.644531 C 579.78125 543.933594 579.757812 543.222656 579.765625 542.511719 C 579.773438 541.800781 579.816406 541.089844 579.894531 540.382812 C 579.96875 539.675781 580.078125 538.972656 580.222656 538.273438 C 580.367188 537.578125 580.542969 536.890625 580.753906 536.207031 C 580.960938 535.527344 581.203125 534.859375 581.476562 534.203125 C 581.75 533.542969 582.054688 532.902344 582.390625 532.273438 C 582.726562 531.644531 583.089844 531.035156 583.484375 530.441406 C 583.875 529.847656 584.296875 529.273438 584.746094 528.722656 C 585.195312 528.167969 585.667969 527.636719 586.167969 527.128906 C 586.664062 526.621094 587.1875 526.140625 587.734375 525.683594 C 588.277344 525.222656 588.84375 524.792969 589.429688 524.390625 C 590.015625 523.984375 590.621094 523.609375 591.242188 523.265625 C 591.867188 522.917969 592.503906 522.605469 593.15625 522.320312 C 593.808594 522.035156 594.472656 521.78125 595.148438 521.558594 C 595.824219 521.335938 596.511719 521.148438 597.207031 520.992188 C 597.902344 520.835938 598.601562 520.714844 599.308594 520.625 C 600.015625 520.539062 600.722656 520.484375 601.433594 520.460938 C 602.148438 520.441406 602.859375 520.453125 603.566406 520.5 C 604.277344 520.546875 604.984375 520.628906 605.6875 520.742188 C 606.390625 520.859375 607.085938 521.007812 607.773438 521.1875 L 669.695312 540.320312 C 671.097656 540.753906 672.441406 541.320312 673.730469 542.015625 C 675.019531 542.714844 676.230469 543.53125 677.359375 544.464844 C 678.488281 545.402344 679.515625 546.4375 680.4375 547.574219 C 681.363281 548.710938 682.167969 549.929688 682.851562 551.226562 L 692.726562 569.921875 C 693.070312 570.566406 693.378906 571.230469 693.652344 571.90625 C 693.929688 572.582031 694.171875 573.269531 694.382812 573.96875 C 694.589844 574.667969 694.765625 575.378906 694.902344 576.09375 C 695.042969 576.8125 695.148438 577.53125 695.214844 578.261719 C 695.285156 578.988281 695.316406 579.714844 695.3125 580.445312 C 695.308594 581.175781 695.269531 581.90625 695.195312 582.632812 C 695.121094 583.359375 695.011719 584.078125 694.867188 584.792969 C 694.71875 585.511719 694.539062 586.21875 694.324219 586.914062 C 694.109375 587.613281 693.863281 588.300781 693.582031 588.972656 C 693.296875 589.648438 692.984375 590.304688 692.636719 590.949219 C 692.289062 591.589844 691.914062 592.214844 691.503906 592.820312 C 691.097656 593.425781 690.660156 594.011719 690.195312 594.574219 C 689.730469 595.136719 689.238281 595.675781 688.722656 596.191406 C 688.203125 596.703125 687.660156 597.191406 687.09375 597.65625 C 686.527344 598.117188 685.941406 598.546875 685.332031 598.953125 C 684.722656 599.355469 684.097656 599.730469 683.453125 600.070312 Z M 683.453125 600.070312 " fill-opacity="1" fill-rule="nonzero"/></g></g></g><g clip-path="url(#55eb9d4c4d)"><g clip-path="url(#f06e0a1828)"><g clip-path="url(#ba2cdebee3)"><path fill="#ffffff" d="M 431.589844 455.339844 C 430.292969 456.023438 428.945312 456.574219 427.539062 456.996094 C 426.132812 457.414062 424.703125 457.691406 423.242188 457.824219 C 421.78125 457.960938 420.324219 457.953125 418.863281 457.804688 C 417.40625 457.652344 415.976562 457.359375 414.578125 456.929688 L 203.378906 391.722656 C 202.691406 391.496094 202.019531 391.238281 201.355469 390.945312 C 200.695312 390.65625 200.046875 390.332031 199.417969 389.980469 C 198.785156 389.625 198.175781 389.242188 197.582031 388.828125 C 196.988281 388.417969 196.414062 387.976562 195.863281 387.507812 C 195.3125 387.039062 194.785156 386.542969 194.285156 386.023438 C 193.78125 385.503906 193.304688 384.960938 192.855469 384.394531 C 192.40625 383.828125 191.984375 383.242188 191.589844 382.636719 C 191.199219 382.027344 190.835938 381.402344 190.503906 380.761719 C 190.171875 380.117188 189.871094 379.460938 189.601562 378.789062 C 189.335938 378.117188 189.097656 377.433594 188.898438 376.742188 C 188.695312 376.046875 188.527344 375.34375 188.394531 374.632812 C 188.261719 373.921875 188.160156 373.207031 188.097656 372.488281 C 188.03125 371.765625 188.003906 371.046875 188.007812 370.320312 C 188.015625 369.597656 188.054688 368.878906 188.132812 368.160156 C 188.207031 367.4375 188.320312 366.726562 188.464844 366.015625 C 188.609375 365.308594 188.789062 364.609375 189.003906 363.917969 C 189.214844 363.226562 189.460938 362.546875 189.742188 361.882812 C 190.019531 361.214844 190.332031 360.5625 190.675781 359.925781 C 191.015625 359.289062 191.390625 358.667969 191.792969 358.070312 C 192.195312 357.46875 192.625 356.890625 193.085938 356.328125 C 193.542969 355.769531 194.03125 355.234375 194.539062 354.722656 C 195.050781 354.210938 195.585938 353.726562 196.144531 353.265625 C 196.703125 352.808594 197.28125 352.375 197.882812 351.972656 C 198.484375 351.570312 199.101562 351.195312 199.738281 350.851562 C 200.375 350.511719 201.027344 350.199219 201.691406 349.917969 C 202.359375 349.636719 203.039062 349.390625 203.730469 349.175781 C 204.417969 348.964844 205.121094 348.78125 205.828125 348.636719 C 206.535156 348.492188 207.25 348.378906 207.96875 348.304688 C 208.6875 348.226562 209.410156 348.183594 210.132812 348.179688 C 210.855469 348.171875 211.578125 348.199219 212.296875 348.261719 C 213.015625 348.328125 213.734375 348.425781 214.445312 348.558594 C 215.15625 348.691406 215.855469 348.859375 216.550781 349.058594 L 427.75 414.265625 C 428.796875 414.589844 429.816406 414.988281 430.808594 415.464844 C 431.796875 415.9375 432.746094 416.484375 433.65625 417.097656 C 434.566406 417.710938 435.425781 418.390625 436.234375 419.132812 C 437.046875 419.871094 437.796875 420.667969 438.488281 421.519531 C 439.179688 422.375 439.808594 423.273438 440.367188 424.214844 C 440.925781 425.160156 441.414062 426.140625 441.828125 427.15625 C 442.242188 428.171875 442.582031 429.214844 442.84375 430.28125 C 443.105469 431.347656 443.285156 432.425781 443.390625 433.519531 C 443.492188 434.613281 443.511719 435.707031 443.453125 436.804688 C 443.394531 437.898438 443.253906 438.984375 443.035156 440.0625 C 442.816406 441.136719 442.519531 442.191406 442.144531 443.222656 C 441.769531 444.253906 441.320312 445.253906 440.800781 446.21875 C 440.277344 447.183594 439.6875 448.105469 439.027344 448.984375 C 438.371094 449.863281 437.652344 450.691406 436.871094 451.460938 C 436.089844 452.234375 435.257812 452.945312 434.375 453.597656 C 433.488281 454.246094 432.5625 454.828125 431.589844 455.339844 Z M 431.589844 455.339844 " fill-opacity="1" fill-rule="nonzero"/></g></g></g><g clip-path="url(#18f933048c)"><g clip-path="url(#ef5dab6fa3)"><g clip-path="url(#abba81eebb)"><path fill="#ffffff" d="M 389.878906 376.367188 C 388.582031 377.050781 387.230469 377.601562 385.828125 378.023438 C 384.421875 378.441406 382.988281 378.71875 381.53125 378.855469 C 380.070312 378.988281 378.613281 378.980469 377.152344 378.832031 C 375.695312 378.679688 374.265625 378.386719 372.867188 377.957031 L 282.351562 350.011719 C 281.664062 349.785156 280.992188 349.527344 280.328125 349.234375 C 279.667969 348.945312 279.019531 348.621094 278.390625 348.269531 C 277.757812 347.914062 277.144531 347.53125 276.554688 347.117188 C 275.960938 346.707031 275.386719 346.265625 274.835938 345.796875 C 274.285156 345.328125 273.757812 344.832031 273.257812 344.3125 C 272.753906 343.792969 272.277344 343.25 271.828125 342.683594 C 271.378906 342.117188 270.957031 341.53125 270.5625 340.921875 C 270.171875 340.316406 269.808594 339.691406 269.476562 339.050781 C 269.144531 338.40625 268.84375 337.75 268.574219 337.078125 C 268.308594 336.40625 268.070312 335.722656 267.871094 335.03125 C 267.667969 334.335938 267.5 333.632812 267.367188 332.921875 C 267.230469 332.210938 267.132812 331.496094 267.070312 330.777344 C 267.003906 330.054688 266.976562 329.332031 266.980469 328.609375 C 266.988281 327.886719 267.027344 327.164062 267.105469 326.445312 C 267.179688 325.726562 267.292969 325.015625 267.4375 324.304688 C 267.582031 323.597656 267.761719 322.898438 267.976562 322.207031 C 268.1875 321.515625 268.433594 320.835938 268.714844 320.167969 C 268.992188 319.503906 269.304688 318.851562 269.648438 318.214844 C 269.988281 317.578125 270.363281 316.957031 270.765625 316.355469 C 271.167969 315.757812 271.597656 315.175781 272.058594 314.617188 C 272.515625 314.058594 273 313.523438 273.511719 313.011719 C 274.023438 312.5 274.558594 312.015625 275.117188 311.554688 C 275.675781 311.097656 276.253906 310.664062 276.855469 310.261719 C 277.453125 309.859375 278.074219 309.484375 278.710938 309.140625 C 279.347656 308.796875 280 308.488281 280.664062 308.207031 C 281.332031 307.925781 282.011719 307.679688 282.699219 307.464844 C 283.390625 307.25 284.089844 307.070312 284.800781 306.925781 C 285.507812 306.78125 286.222656 306.667969 286.941406 306.589844 C 287.660156 306.515625 288.382812 306.472656 289.105469 306.464844 C 289.828125 306.460938 290.550781 306.488281 291.269531 306.550781 C 291.988281 306.613281 292.707031 306.714844 293.417969 306.847656 C 294.128906 306.980469 294.828125 307.148438 295.523438 307.347656 L 386.039062 335.292969 C 387.085938 335.617188 388.105469 336.015625 389.09375 336.492188 C 390.085938 336.964844 391.035156 337.511719 391.945312 338.125 C 392.855469 338.738281 393.714844 339.417969 394.523438 340.160156 C 395.335938 340.898438 396.085938 341.695312 396.777344 342.546875 C 397.46875 343.402344 398.09375 344.300781 398.65625 345.242188 C 399.214844 346.1875 399.703125 347.167969 400.117188 348.183594 C 400.53125 349.199219 400.871094 350.242188 401.132812 351.308594 C 401.394531 352.375 401.574219 353.453125 401.679688 354.546875 C 401.78125 355.640625 401.800781 356.734375 401.742188 357.832031 C 401.683594 358.925781 401.542969 360.011719 401.324219 361.089844 C 401.105469 362.164062 400.808594 363.21875 400.433594 364.25 C 400.058594 365.28125 399.609375 366.28125 399.085938 367.246094 C 398.566406 368.210938 397.976562 369.132812 397.316406 370.011719 C 396.660156 370.890625 395.941406 371.71875 395.160156 372.488281 C 394.378906 373.261719 393.546875 373.972656 392.664062 374.625 C 391.777344 375.273438 390.851562 375.855469 389.878906 376.367188 Z M 389.878906 376.367188 " fill-opacity="1" fill-rule="nonzero"/></g></g></g><g clip-path="url(#76710dd7e2)"><g clip-path="url(#9fa6c4d9dc)"><g clip-path="url(#9dfe983a80)"><path fill="#ffffff" d="M 473.300781 534.3125 C 472.003906 534.996094 470.65625 535.546875 469.25 535.964844 C 467.84375 536.386719 466.414062 536.664062 464.953125 536.796875 C 463.492188 536.933594 462.035156 536.925781 460.578125 536.777344 C 459.117188 536.625 457.6875 536.332031 456.289062 535.902344 L 245.089844 470.695312 C 244.40625 470.46875 243.730469 470.210938 243.066406 469.917969 C 242.40625 469.628906 241.757812 469.304688 241.128906 468.953125 C 240.496094 468.597656 239.886719 468.214844 239.292969 467.800781 C 238.699219 467.390625 238.125 466.949219 237.574219 466.480469 C 237.023438 466.011719 236.5 465.515625 235.996094 464.996094 C 235.492188 464.476562 235.015625 463.933594 234.566406 463.367188 C 234.117188 462.800781 233.695312 462.214844 233.304688 461.609375 C 232.910156 461 232.546875 460.375 232.214844 459.734375 C 231.882812 459.089844 231.582031 458.433594 231.316406 457.761719 C 231.046875 457.089844 230.8125 456.40625 230.609375 455.714844 C 230.40625 455.019531 230.238281 454.316406 230.105469 453.605469 C 229.972656 452.894531 229.871094 452.179688 229.808594 451.460938 C 229.746094 450.738281 229.714844 450.015625 229.722656 449.292969 C 229.726562 448.570312 229.769531 447.851562 229.84375 447.128906 C 229.921875 446.410156 230.03125 445.699219 230.175781 444.988281 C 230.320312 444.28125 230.5 443.582031 230.714844 442.890625 C 230.925781 442.199219 231.171875 441.519531 231.453125 440.851562 C 231.730469 440.1875 232.042969 439.535156 232.386719 438.898438 C 232.730469 438.261719 233.101562 437.640625 233.503906 437.042969 C 233.90625 436.441406 234.339844 435.859375 234.796875 435.300781 C 235.257812 434.742188 235.742188 434.207031 236.253906 433.695312 C 236.761719 433.183594 237.296875 432.699219 237.855469 432.238281 C 238.414062 431.78125 238.992188 431.347656 239.59375 430.945312 C 240.195312 430.542969 240.8125 430.167969 241.449219 429.824219 C 242.085938 429.480469 242.738281 429.171875 243.402344 428.890625 C 244.070312 428.609375 244.75 428.363281 245.441406 428.148438 C 246.132812 427.9375 246.832031 427.753906 247.539062 427.609375 C 248.246094 427.464844 248.960938 427.351562 249.679688 427.273438 C 250.398438 427.199219 251.121094 427.15625 251.84375 427.148438 C 252.566406 427.144531 253.289062 427.171875 254.007812 427.234375 C 254.730469 427.300781 255.445312 427.398438 256.15625 427.53125 C 256.867188 427.664062 257.570312 427.832031 258.261719 428.03125 L 469.460938 493.238281 C 470.507812 493.5625 471.527344 493.960938 472.519531 494.4375 C 473.507812 494.910156 474.457031 495.457031 475.367188 496.070312 C 476.277344 496.683594 477.136719 497.363281 477.949219 498.101562 C 478.757812 498.84375 479.507812 499.640625 480.199219 500.492188 C 480.890625 501.347656 481.519531 502.242188 482.078125 503.1875 C 482.636719 504.132812 483.125 505.113281 483.539062 506.128906 C 483.957031 507.144531 484.292969 508.1875 484.554688 509.253906 C 484.816406 510.320312 485 511.398438 485.101562 512.492188 C 485.203125 513.585938 485.222656 514.679688 485.164062 515.777344 C 485.105469 516.871094 484.964844 517.957031 484.746094 519.035156 C 484.527344 520.109375 484.230469 521.164062 483.855469 522.195312 C 483.480469 523.226562 483.03125 524.226562 482.511719 525.191406 C 481.988281 526.15625 481.398438 527.078125 480.738281 527.957031 C 480.082031 528.835938 479.363281 529.664062 478.582031 530.433594 C 477.800781 531.207031 476.96875 531.917969 476.085938 532.570312 C 475.199219 533.21875 474.273438 533.800781 473.300781 534.3125 Z M 473.300781 534.3125 " fill-opacity="1" fill-rule="nonzero"/></g></g></g><g clip-path="url(#6e3e2aa5bf)"><g clip-path="url(#826866b327)"><g clip-path="url(#49619d8fb8)"><path fill="#ffffff" d="M 515.011719 613.285156 C 513.71875 613.96875 512.367188 614.519531 510.960938 614.9375 C 509.554688 615.355469 508.125 615.632812 506.664062 615.769531 C 505.203125 615.90625 503.746094 615.898438 502.289062 615.75 C 500.828125 615.597656 499.398438 615.304688 498 614.871094 L 286.804688 549.667969 C 286.117188 549.441406 285.441406 549.183594 284.777344 548.890625 C 284.117188 548.601562 283.46875 548.277344 282.839844 547.925781 C 282.210938 547.570312 281.597656 547.1875 281.003906 546.773438 C 280.410156 546.363281 279.835938 545.921875 279.285156 545.453125 C 278.738281 544.984375 278.210938 544.488281 277.707031 543.96875 C 277.203125 543.449219 276.726562 542.90625 276.277344 542.339844 C 275.828125 541.773438 275.40625 541.1875 275.015625 540.578125 C 274.621094 539.972656 274.257812 539.347656 273.925781 538.707031 C 273.59375 538.0625 273.292969 537.40625 273.027344 536.734375 C 272.757812 536.0625 272.523438 535.378906 272.320312 534.6875 C 272.117188 533.992188 271.949219 533.289062 271.816406 532.578125 C 271.683594 531.867188 271.585938 531.152344 271.519531 530.433594 C 271.457031 529.710938 271.425781 528.988281 271.433594 528.265625 C 271.4375 527.542969 271.480469 526.824219 271.554688 526.101562 C 271.632812 525.382812 271.742188 524.671875 271.886719 523.960938 C 272.03125 523.253906 272.210938 522.554688 272.425781 521.863281 C 272.640625 521.171875 272.886719 520.492188 273.164062 519.824219 C 273.445312 519.160156 273.753906 518.507812 274.097656 517.871094 C 274.441406 517.234375 274.8125 516.613281 275.214844 516.015625 C 275.617188 515.414062 276.050781 514.832031 276.507812 514.273438 C 276.96875 513.714844 277.453125 513.179688 277.964844 512.667969 C 278.476562 512.15625 279.007812 511.671875 279.566406 511.210938 C 280.125 510.753906 280.707031 510.320312 281.304688 509.917969 C 281.90625 509.515625 282.523438 509.140625 283.160156 508.796875 C 283.796875 508.453125 284.449219 508.144531 285.117188 507.863281 C 285.78125 507.582031 286.460938 507.335938 287.152344 507.121094 C 287.84375 506.90625 288.542969 506.726562 289.25 506.582031 C 289.957031 506.4375 290.671875 506.324219 291.390625 506.246094 C 292.109375 506.171875 292.832031 506.128906 293.554688 506.121094 C 294.277344 506.117188 295 506.144531 295.71875 506.207031 C 296.441406 506.273438 297.15625 506.371094 297.867188 506.503906 C 298.578125 506.636719 299.28125 506.804688 299.976562 507.003906 L 511.171875 572.210938 C 512.21875 572.535156 513.238281 572.933594 514.230469 573.410156 C 515.21875 573.882812 516.171875 574.425781 517.078125 575.042969 C 517.988281 575.65625 518.847656 576.335938 519.660156 577.074219 C 520.46875 577.816406 521.21875 578.613281 521.910156 579.464844 C 522.605469 580.316406 523.230469 581.214844 523.789062 582.160156 C 524.347656 583.105469 524.835938 584.085938 525.25 585.101562 C 525.667969 586.117188 526.003906 587.160156 526.265625 588.226562 C 526.527344 589.292969 526.710938 590.371094 526.8125 591.464844 C 526.914062 592.558594 526.9375 593.652344 526.875 594.75 C 526.816406 595.84375 526.679688 596.929688 526.457031 598.007812 C 526.238281 599.082031 525.941406 600.136719 525.566406 601.167969 C 525.191406 602.199219 524.742188 603.199219 524.222656 604.164062 C 523.699219 605.128906 523.109375 606.050781 522.453125 606.929688 C 521.792969 607.808594 521.074219 608.636719 520.292969 609.40625 C 519.515625 610.179688 518.683594 610.890625 517.796875 611.542969 C 516.910156 612.191406 515.984375 612.773438 515.011719 613.285156 Z M 515.011719 613.285156 " fill-opacity="1" fill-rule="nonzero"/></g></g></g><g clip-path="url(#760f439366)"><g clip-path="url(#1ce5d944fd)"><g clip-path="url(#eed4c6f6d5)"><path fill="#ffffff" d="M 483.226562 669.566406 C 481.933594 670.25 480.582031 670.800781 479.175781 671.21875 C 477.769531 671.636719 476.339844 671.914062 474.878906 672.050781 C 473.417969 672.1875 471.960938 672.179688 470.503906 672.027344 C 469.042969 671.878906 467.617188 671.585938 466.214844 671.152344 L 341.710938 632.730469 C 341.011719 632.511719 340.324219 632.261719 339.652344 631.980469 C 338.976562 631.695312 338.316406 631.378906 337.675781 631.03125 C 337.03125 630.683594 336.40625 630.304688 335.800781 629.894531 C 335.195312 629.484375 334.613281 629.046875 334.050781 628.578125 C 333.484375 628.113281 332.949219 627.617188 332.433594 627.097656 C 331.917969 626.578125 331.429688 626.035156 330.972656 625.464844 C 330.511719 624.898438 330.078125 624.308594 329.675781 623.699219 C 329.273438 623.089844 328.898438 622.460938 328.558594 621.8125 C 328.21875 621.167969 327.910156 620.503906 327.632812 619.828125 C 327.355469 619.152344 327.113281 618.460938 326.90625 617.761719 C 326.695312 617.058594 326.523438 616.351562 326.382812 615.632812 C 326.246094 614.914062 326.140625 614.191406 326.074219 613.464844 C 326.003906 612.734375 325.972656 612.003906 325.976562 611.273438 C 325.980469 610.542969 326.019531 609.8125 326.09375 609.085938 C 326.171875 608.359375 326.28125 607.636719 326.425781 606.921875 C 326.574219 606.203125 326.753906 605.496094 326.96875 604.796875 C 327.1875 604.097656 327.4375 603.414062 327.71875 602.738281 C 328.003906 602.0625 328.316406 601.40625 328.664062 600.761719 C 329.011719 600.117188 329.390625 599.492188 329.800781 598.886719 C 330.210938 598.28125 330.648438 597.695312 331.113281 597.132812 C 331.582031 596.570312 332.074219 596.03125 332.59375 595.515625 C 333.113281 595.003906 333.65625 594.515625 334.222656 594.054688 C 334.792969 593.59375 335.378906 593.160156 335.992188 592.757812 C 336.601562 592.351562 337.230469 591.980469 337.875 591.636719 C 338.523438 591.296875 339.183594 590.988281 339.859375 590.710938 C 340.539062 590.433594 341.226562 590.191406 341.925781 589.980469 C 342.628906 589.773438 343.335938 589.597656 344.054688 589.457031 C 344.773438 589.320312 345.496094 589.214844 346.222656 589.144531 C 346.953125 589.078125 347.679688 589.046875 348.414062 589.046875 C 349.144531 589.050781 349.875 589.089844 350.601562 589.164062 C 351.328125 589.238281 352.050781 589.351562 352.765625 589.496094 C 353.484375 589.640625 354.191406 589.820312 354.890625 590.035156 L 479.386719 628.492188 C 480.433594 628.816406 481.453125 629.214844 482.445312 629.6875 C 483.433594 630.164062 484.386719 630.707031 485.292969 631.324219 C 486.203125 631.9375 487.0625 632.613281 487.875 633.355469 C 488.683594 634.097656 489.433594 634.894531 490.125 635.746094 C 490.820312 636.597656 491.445312 637.496094 492.003906 638.441406 C 492.5625 639.386719 493.050781 640.367188 493.464844 641.382812 C 493.882812 642.398438 494.21875 643.441406 494.480469 644.507812 C 494.742188 645.574219 494.925781 646.652344 495.027344 647.746094 C 495.128906 648.839844 495.152344 649.933594 495.089844 651.027344 C 495.03125 652.125 494.894531 653.210938 494.671875 654.285156 C 494.453125 655.363281 494.15625 656.417969 493.78125 657.449219 C 493.40625 658.480469 492.960938 659.480469 492.4375 660.445312 C 491.914062 661.410156 491.324219 662.332031 490.667969 663.210938 C 490.007812 664.089844 489.289062 664.914062 488.507812 665.6875 C 487.730469 666.460938 486.898438 667.171875 486.011719 667.820312 C 485.125 668.472656 484.199219 669.050781 483.226562 669.566406 Z M 483.226562 669.566406 " fill-opacity="1" fill-rule="nonzero"/></g></g></g></svg>